<svg xmlns="http://www.w3.org/2000/svg" width="16" height="17" viewBox="0 0 16 17" fill="none">
  <path d="M13.0334 7.06806L12.0827 4.49226C11.9927 4.20049 11.8316 3.9491 11.6208 3.77176C11.41 3.59441 11.1596 3.49959 10.9032 3.5H5.097C4.84062 3.49959 4.59025 3.59441 4.37945 3.77176C4.16865 3.9491 4.00748 4.20049 3.91753 4.49226L2.9668 7.06806" stroke="#A98EDA" stroke-width="1.5" stroke-linecap="round" stroke-linejoin="round"/>
  <path d="M13.0332 11.6553V12.5873C13.0332 12.8294 12.9278 13.0615 12.7403 13.2326C12.5528 13.4038 12.2984 13.4999 12.0332 13.4999C11.768 13.4999 11.5136 13.4038 11.3261 13.2326C11.1386 13.0615 11.0332 12.8294 11.0332 12.5873V11.6747" stroke="#A98EDA" stroke-width="1.5" stroke-linecap="round" stroke-linejoin="round"/>
  <path d="M5.12988 11.6553V12.5873C5.12988 12.8294 5.02453 13.0615 4.83699 13.2326C4.64945 13.4038 4.3951 13.4999 4.12988 13.4999C3.86467 13.4999 3.61031 13.4038 3.42278 13.2326C3.23524 13.0615 3.12988 12.8294 3.12988 12.5873V11.6747" stroke="#A98EDA" stroke-width="1.5" stroke-linecap="round" stroke-linejoin="round"/>
  <path d="M2.82652 7.06787H13.1728C13.4694 7.06787 13.7539 7.21108 13.9637 7.46599C14.1734 7.7209 14.2913 8.06663 14.2913 8.42713V10.9757C14.2913 11.156 14.2324 11.3289 14.1275 11.4563C14.0226 11.5838 13.8803 11.6554 13.732 11.6554H2.26726C2.11894 11.6554 1.97669 11.5838 1.87181 11.4563C1.76693 11.3289 1.70801 11.156 1.70801 10.9757V8.42713C1.70801 8.06663 1.82585 7.7209 2.03561 7.46599C2.24537 7.21108 2.52987 7.06787 2.82652 7.06787V7.06787Z" stroke="#A98EDA" stroke-width="1.5" stroke-linecap="round" stroke-linejoin="round"/>
</svg>