<svg
  width="24"
  height="26"
  viewBox="0 0 24 26"
  fill="none"
  xmlns="http://www.w3.org/2000/svg"
>
<path
    d="M15.322 3.54883C17.0537 3.99241 18.6138 4.94221 19.8029 6.27688C20.9921 7.61154 21.7563 9.27045 21.9979 11.0416C22.2396 12.8128 21.9476 14.6158 21.1594 16.2202C20.3712 17.8246 19.1226 19.1576 17.573 20.0488V24.2488"
    stroke="currentColor"
    stroke-width="2"
    stroke-linecap="round"
    stroke-linejoin="round"
  />
<path
    d="M9.322 12.25C9.322 13.2446 9.71709 14.1984 10.4203 14.9017C11.1236 15.6049 12.0774 16 13.072 16C14.0666 16 15.0204 15.6049 15.7236 14.9017C16.4269 14.1984 16.822 13.2446 16.822 12.25C16.822 11.2554 16.4269 10.3016 15.7236 9.59835C15.0204 8.89509 14.0666 8.5 13.072 8.5C12.0774 8.5 11.1236 8.89509 10.4203 9.59835C9.71709 10.3016 9.322 11.2554 9.322 12.25Z"
    stroke="currentColor"
    stroke-width="2"
    stroke-linecap="round"
    stroke-linejoin="round"
  />
<path
    d="M10.822 9.25V2.5C10.822 2.30109 10.901 2.11032 11.0417 1.96967C11.1823 1.82902 11.3731 1.75 11.572 1.75H14.572C14.7709 1.75 14.9617 1.82902 15.1023 1.96967C15.243 2.11032 15.322 2.30109 15.322 2.5V9.25"
    stroke="currentColor"
    stroke-width="2"
    stroke-linecap="round"
    stroke-linejoin="round"
  />
<path
    d="M4.073 16.7604L3.137 16.5264C2.90387 16.4681 2.68817 16.3546 2.50806 16.1955C2.32796 16.0364 2.18872 15.8363 2.10207 15.6121C2.01543 15.388 1.98391 15.1463 2.01018 14.9074C2.03644 14.6685 2.11972 14.4394 2.253 14.2394L4.073 11.5104V10.7604C4.073 7.21845 6.941 4.24945 10.822 3.46045"
    stroke="currentColor"
    stroke-width="2.29688"
    stroke-linecap="round"
    stroke-linejoin="round"
  />
<path
    d="M8.57301 24.2497V22.0107L7.56601 22.1777C7.15224 22.2479 6.72831 22.2299 6.32201 22.1247"
    stroke="currentColor"
    stroke-width="2.29688"
    stroke-linecap="round"
    stroke-linejoin="round"
  />
<path
    d="M13.072 12.2495C13.072 14.2386 12.2818 16.1463 10.8753 17.5528C9.46878 18.9593 7.56113 19.7495 5.57201 19.7495H4.07201"
    stroke="currentColor"
    stroke-width="2.29688"
    stroke-linecap="round"
    stroke-linejoin="round"
  />
</svg>
