<svg
  width="20"
  height="20"
  viewBox="0 0 20 20"
  fill="none"
  xmlns="http://www.w3.org/2000/svg"
>
<path
    d="M2.5 5H4.16667H17.5"
    stroke="currentColor"
    stroke-width="2"
    stroke-linecap="round"
    stroke-linejoin="round"
  />
<path
    d="M16.8334 4.99984C16.8334 4.44755 16.3857 3.99984 15.8334 3.99984C15.2811 3.99984 14.8334 4.44755 14.8334 4.99984H16.8334ZM5.16675 4.99984C5.16675 4.44755 4.71903 3.99984 4.16675 3.99984C3.61446 3.99984 3.16675 4.44755 3.16675 4.99984H5.16675ZM5.66675 4.99984C5.66675 5.55212 6.11446 5.99984 6.66675 5.99984C7.21903 5.99984 7.66675 5.55212 7.66675 4.99984H5.66675ZM12.3334 4.99984C12.3334 5.55212 12.7811 5.99984 13.3334 5.99984C13.8857 5.99984 14.3334 5.55212 14.3334 4.99984H12.3334ZM14.8334 4.99984V16.6665H16.8334V4.99984H14.8334ZM14.8334 16.6665C14.8334 17.0347 14.5349 17.3332 14.1667 17.3332V19.3332C15.6395 19.3332 16.8334 18.1393 16.8334 16.6665H14.8334ZM14.1667 17.3332H5.83341V19.3332H14.1667V17.3332ZM5.83341 17.3332C5.46522 17.3332 5.16675 17.0347 5.16675 16.6665H3.16675C3.16675 18.1393 4.36066 19.3332 5.83341 19.3332V17.3332ZM5.16675 16.6665V4.99984H3.16675V16.6665H5.16675ZM7.66675 4.99984V3.33317H5.66675V4.99984H7.66675ZM7.66675 3.33317C7.66675 2.96498 7.96522 2.6665 8.33341 2.6665V0.666504C6.86066 0.666504 5.66675 1.86041 5.66675 3.33317H7.66675ZM8.33341 2.6665H11.6667V0.666504H8.33341V2.6665ZM11.6667 2.6665C12.0349 2.6665 12.3334 2.96498 12.3334 3.33317H14.3334C14.3334 1.86041 13.1395 0.666504 11.6667 0.666504V2.6665ZM12.3334 3.33317V4.99984H14.3334V3.33317H12.3334Z"
    fill="currentColor"
  />
<path
    d="M8.33325 9.1665V14.1665"
    stroke="currentColor"
    stroke-width="2"
    stroke-linecap="round"
    stroke-linejoin="round"
  />
<path
    d="M11.6667 9.1665V14.1665"
    stroke="currentColor"
    stroke-width="2"
    stroke-linecap="round"
    stroke-linejoin="round"
  />
</svg>
