<svg
  width="24"
  height="24"
  viewBox="0 0 24 24"
  fill="none"
  xmlns="http://www.w3.org/2000/svg"
>
<path
    d="M9.59905 11.5201L19.6812 21.6023C19.9359 21.857 20.2814 22.0001 20.6417 22.0001C21.002 22.0001 21.3475 21.857 21.6022 21.6023C21.8569 21.3475 22.0001 21.002 22.0001 20.6418C22.0001 20.2815 21.8569 19.936 21.6022 19.6813L11.5201 9.59912"
    stroke="currentColor"
    stroke-width="2"
    stroke-linecap="round"
    stroke-linejoin="round"
  />
<path
    d="M7.67819 5.75885L6.71769 4.79835C6.59242 4.66865 6.44258 4.5652 6.27691 4.49403C6.11124 4.42287 5.93305 4.38541 5.75275 4.38384C5.57244 4.38227 5.39363 4.41663 5.22675 4.48491C5.05986 4.55319 4.90825 4.65402 4.78075 4.78152C4.65325 4.90902 4.55242 5.06063 4.48414 5.22751C4.41586 5.3944 4.38151 5.57321 4.38307 5.75351C4.38464 5.93382 4.4221 6.11201 4.49327 6.27768C4.56443 6.44335 4.66788 6.59319 4.79758 6.71845L5.75809 7.67896"
    stroke="currentColor"
    stroke-width="2"
    stroke-linecap="round"
    stroke-linejoin="round"
  />
<path
    d="M7.55129 13.5686L13.5696 7.55029"
    stroke="currentColor"
    stroke-width="2"
    stroke-linecap="round"
    stroke-linejoin="round"
  />
<path
    d="M9.72745 3.70996L3.71003 9.72738"
    stroke="currentColor"
    stroke-width="2"
    stroke-linecap="round"
    stroke-linejoin="round"
  />
<path
    d="M5.27776 14.8803C5.40384 15.0066 5.55356 15.1069 5.71837 15.1753C5.88319 15.2438 6.05988 15.2791 6.23834 15.2793C6.41681 15.2794 6.59356 15.2445 6.75851 15.1763C6.92345 15.1082 7.07336 15.0082 7.19968 14.8821C7.32599 14.7561 7.42624 14.6063 7.49469 14.4415C7.56314 14.2767 7.59846 14.1 7.59862 13.9216C7.59879 13.7431 7.56381 13.5663 7.49567 13.4014C7.42753 13.2364 7.32756 13.0865 7.20149 12.9602L4.32088 10.0796C4.1948 9.9533 4.04508 9.85305 3.88026 9.7846C3.71544 9.71615 3.53876 9.68083 3.36029 9.68066C3.18183 9.6805 3.00507 9.71548 2.84013 9.78362C2.67518 9.85176 2.52527 9.95173 2.39896 10.0778C2.27265 10.2039 2.1724 10.3536 2.10395 10.5184C2.0355 10.6832 2.00018 10.8599 2.00001 11.0384C1.99984 11.2169 2.03483 11.3936 2.10297 11.5585C2.17111 11.7235 2.27107 11.8734 2.39715 11.9997L5.27776 14.8803Z"
    stroke="currentColor"
    stroke-width="2"
    stroke-linecap="round"
    stroke-linejoin="round"
  />
<path
    d="M12.9603 7.20187C13.0866 7.32795 13.2366 7.42791 13.4015 7.49605C13.5664 7.56419 13.7432 7.59918 13.9217 7.59901C14.1001 7.59884 14.2768 7.56353 14.4416 7.49507C14.6065 7.42662 14.7562 7.32638 14.8823 7.20006C15.0083 7.07375 15.1083 6.92384 15.1764 6.7589C15.2446 6.59395 15.2796 6.4172 15.2794 6.23873C15.279 5.8783 15.1355 5.53277 14.8804 5.27815L11.9998 2.39753C11.8737 2.27146 11.724 2.17146 11.5592 2.10325C11.3944 2.03504 11.2178 1.99996 11.0395 2C10.8611 2.00004 10.6845 2.03521 10.5198 2.1035C10.355 2.17178 10.2053 2.27185 10.0793 2.39799C9.95319 2.52412 9.8532 2.67386 9.78499 2.83864C9.71678 3.00342 9.68169 3.18002 9.68173 3.35836C9.68178 3.5367 9.71694 3.71329 9.78523 3.87804C9.85352 4.04278 9.95359 4.19247 10.0797 4.31855L12.9603 7.20187Z"
    stroke="currentColor"
    stroke-width="2"
    stroke-linecap="round"
    stroke-linejoin="round"
  />
</svg>
