<svg
  width="160"
  height="17"
  viewBox="0 0 160 17"
  fill="none"
  xmlns="http://www.w3.org/2000/svg"
>
<g clip-path="url(#clip0_649_8095)">
<path
      d="M4.10889 11.1603L2.585 15.9603H0.592224L5.63278 0.840332H7.97723L13.0178 15.9603H11.025L9.50111 11.1603H4.10889ZM9.03222 9.72033L7.62556 5.40033C7.27389 4.44033 7.03945 3.48033 6.80501 2.64033C6.57056 3.48033 6.33611 4.44033 6.10167 5.40033L4.57778 9.72033H9.03222Z"
      fill="#027275"
    />
<path
      d="M22.63 0.840332V9.84033C22.63 13.2003 24.1539 14.6403 26.0294 14.6403C28.2566 14.6403 29.6633 13.2003 29.6633 9.84033V0.840332H31.5389V9.60033C31.5389 14.2803 29.1944 16.2003 25.9122 16.2003C22.8644 16.2003 20.6372 14.4003 20.6372 9.72033V0.840332H22.63Z"
      fill="#027275"
    />
<path
      d="M40.9167 1.08021C41.8545 0.840214 43.2611 0.720215 44.5506 0.720215C46.5434 0.720215 47.95 1.08021 48.7706 1.92021C49.4739 2.64021 49.9428 3.60021 49.9428 4.80021C49.9428 6.84021 48.7706 8.16021 47.1295 8.64021V8.76021C48.3017 9.12021 49.005 10.2002 49.2395 11.7602C49.7084 13.9202 50.06 15.3602 50.4117 15.9602H48.4189C48.1845 15.4802 47.8328 14.2802 47.4811 12.3602C47.0122 10.3202 46.3089 9.48021 44.5506 9.48021H42.7922V16.0802H40.9167V1.08021ZM42.9095 7.92021H44.9022C46.895 7.92021 48.1845 6.72021 48.1845 5.04022C48.1845 3.12022 46.7778 2.28021 44.785 2.16021C43.8472 2.16021 43.2611 2.28021 42.9095 2.28021V7.92021Z"
      fill="#027275"
    />
<path
      d="M66.4711 8.88033H60.7272V14.2803H67.1745V15.9603H58.8517V0.840332H66.8228V2.52033H60.7272V7.32033H66.4711V8.88033Z"
      fill="#027275"
    />
<path
      d="M75.4972 13.5601C76.3178 14.0401 77.6072 14.5201 78.8967 14.5201C80.8894 14.5201 81.9444 13.4401 81.9444 12.0001C81.9444 10.5601 81.1239 9.8401 79.1311 9.0001C76.6694 8.1601 75.2628 6.8401 75.2628 4.6801C75.2628 2.2801 77.1383 0.600098 80.0689 0.600098C81.5928 0.600098 82.6478 0.960098 83.3511 1.3201L82.8822 2.8801C82.4133 2.6401 81.3583 2.1601 80.0689 2.1601C78.0761 2.1601 77.2555 3.3601 77.2555 4.4401C77.2555 5.8801 78.1933 6.6001 80.1861 7.3201C82.6478 8.2801 83.9372 9.4801 83.9372 11.7601C83.9372 14.0401 82.2961 16.0801 78.7794 16.0801C77.3728 16.0801 75.8489 15.6001 75.0283 15.1201L75.4972 13.5601Z"
      fill="#027275"
    />
<path
      d="M98.3556 11.1603L96.8317 15.9603H94.8389L99.8795 0.840332H102.224L107.264 15.9603H105.272L103.748 11.1603H98.3556ZM103.162 9.72033L101.755 5.40033C101.403 4.44033 101.169 3.48033 100.934 2.64033C100.7 3.48033 100.466 4.44033 100.231 5.40033L98.8245 9.72033H103.162Z"
      fill="#0B3838"
    />
<path
      d="M115.47 1.08033C116.408 0.960332 117.58 0.840332 119.104 0.840332C120.979 0.840332 122.386 1.32033 123.207 2.04033C124.027 2.76033 124.496 3.84033 124.496 5.16033C124.496 6.48033 124.144 7.56033 123.324 8.40033C122.269 9.48033 120.628 10.0803 118.869 10.0803C118.283 10.0803 117.814 10.0803 117.346 9.96033V15.9603H115.47V1.08033ZM117.346 8.28033C117.814 8.40033 118.283 8.40033 118.869 8.40033C121.214 8.40033 122.621 7.20033 122.621 5.16033C122.621 3.12033 121.214 2.16033 119.104 2.16033C118.283 2.16033 117.58 2.28033 117.346 2.28033V8.28033Z"
      fill="#0B3838"
    />
<path
      d="M133.288 1.08033C134.226 0.960332 135.398 0.840332 136.922 0.840332C138.797 0.840332 140.204 1.32033 141.024 2.04033C141.845 2.76033 142.314 3.84033 142.314 5.16033C142.314 6.48033 141.962 7.56033 141.142 8.40033C140.087 9.48033 138.446 10.0803 136.687 10.0803C136.101 10.0803 135.632 10.0803 135.163 9.96033V15.9603H133.288V1.08033ZM135.163 8.28033C135.632 8.40033 136.101 8.40033 136.687 8.40033C139.032 8.40033 140.438 7.20033 140.438 5.16033C140.438 3.12033 139.032 2.16033 136.922 2.16033C136.101 2.16033 135.398 2.28033 135.163 2.28033V8.28033Z"
      fill="#0B3838"
    />
<path
      d="M150.754 13.5601C151.574 14.0401 152.864 14.5201 154.153 14.5201C156.146 14.5201 157.201 13.4401 157.201 12.0001C157.201 10.5601 156.381 9.8401 154.388 9.0001C151.926 8.1601 150.519 6.8401 150.519 4.6801C150.519 2.2801 152.395 0.600098 155.326 0.600098C156.849 0.600098 157.904 0.960098 158.608 1.3201L158.139 2.8801C157.67 2.6401 156.615 2.1601 155.326 2.1601C153.333 2.1601 152.512 3.3601 152.512 4.4401C152.512 5.8801 153.45 6.6001 155.443 7.3201C157.904 8.2801 159.194 9.4801 159.194 11.7601C159.194 14.0401 157.553 16.0801 154.036 16.0801C152.629 16.0801 151.106 15.6001 150.285 15.1201L150.754 13.5601Z"
      fill="#0B3838"
    />
</g>
<defs>
<clipPath id="clip0_649_8095">
<rect width="160" height="17" fill="white" />
</clipPath>
</defs>
</svg>
