<svg fill="none" xmlns="http://www.w3.org/2000/svg" viewBox="0 0 33 32">
  <g clip-path="url(#IconToyota_svg__clip0)">
    <path
      d="M16.286 5.104c9.064 0 16 4.674 16 10.895 0 6.018-6.76 10.896-16 10.896S.286 22.02.286 16c0-6.221 6.936-10.895 16-10.895zm-.68 1.32c-2.274.064-4.43.452-6.308 1.136-1.734.66-2.812 1.496-2.99 2.216-.334 1.344 1.232 3.024 6.268 3.572.334-3.42 1.348-6.312 3.032-6.924h-.002zm1.36 0c1.68.612 2.696 3.502 3.03 6.923 5.034-.547 6.6-2.227 6.266-3.571-.18-.724-1.266-1.566-3.016-2.226-1.87-.68-4.018-1.06-6.28-1.126zm-.68 2.556c-.962 0-1.98 1.647-2.36 4.481.724.046 1.51.07 2.36.07.848 0 1.634-.024 2.36-.07-.38-2.834-1.396-4.481-2.36-4.481zM4.33 10.873a7.336 7.336 0 00-1.684 4.735c0 5.293 5.814 9.707 12.98 9.963-1.67-.642-3.174-3.754-3.174-9.624v-.19c-4.692-.636-7.984-2.451-8.122-4.883zm23.912 0c-.138 2.433-3.43 4.248-8.122 4.885v.19c0 5.616-1.52 8.953-3.2 9.625 7.176-.247 13.006-4.663 13.006-9.966 0-1.835-.614-3.42-1.684-4.733zM18.806 15.9c-1.676.141-3.36.141-5.036 0v.045c0 4.334 1.3 6.13 2.518 6.13 1.218 0 2.52-1.796 2.52-6.13l-.002-.046z"
      fill="#EB0A1E"
    />
  </g>
  <defs>
    <clipPath id="IconToyota_svg__clip0">
      <path fill="#fff" transform="translate(.286)" d="M0 0h32v32H0z" />
    </clipPath>
  </defs>
</svg>
