<svg fill="none" xmlns="http://www.w3.org/2000/svg" viewBox="0 0 33 32">
  <g clip-path="url(#IconBMW_svg__clip0)">
    <path
      d="M16.143 0c-8.836 0-16 7.164-16 16s7.164 16 16 16 16-7.164 16-16-7.164-16-16-16zm0 1.04c8.261 0 14.959 6.697 14.959 14.96 0 8.261-6.696 14.959-14.959 14.959S1.184 24.26 1.184 16 7.882 1.04 16.144 1.04zm-.904.84c-.44.019-.88.056-1.323.104l-.142 3.925c.314-.053.63-.095.946-.125l.094-2.65-.018-.183.058.173.885 1.985h.808l.885-1.984.054-.174-.014.182.094 2.651c.31.03.63.072.946.125l-.145-3.925c-.44-.05-.88-.084-1.323-.104l-.87 2.167-.03.16-.032-.16-.873-2.167zm8.928 2.432L22.11 7.549c.26.2.602.495.822.696L24.87 7.24l.122-.092-.092.125-1.002 1.938c.217.233.53.61.706.84l3.24-2.059c-.198-.257-.403-.51-.613-.757L25.18 8.587l-.14.122.104-.153.907-1.808-.64-.64-1.808.907-.154.104.122-.142 1.357-2.052a21.14 21.14 0 00-.76-.613zm-16.69.735c-.48.049-.851.377-1.858 1.5-.349.395-.686.802-1.01 1.218l2.766 2.623c.916-1.013 1.288-1.39 2.01-2.15.511-.54.8-1.16.289-1.757-.278-.322-.744-.393-1.134-.233l-.037.013.013-.034a.933.933 0 00-.324-.979.965.965 0 00-.716-.2v-.001zm.007.82c.182-.05.37.08.411.266.043.187-.075.363-.205.51-.294.333-1.375 1.464-1.375 1.464l-.536-.511a17.349 17.349 0 011.416-1.544.733.733 0 01.29-.185zm8.66.644a9.485 9.485 0 00-9.44 8.517v.003a9.496 9.496 0 0011.354 10.262 9.482 9.482 0 004.791-15.999 9.496 9.496 0 00-6.706-2.78V6.51zm-7.384.322a.33.33 0 01.187.058c.117.078.17.213.141.346-.034.159-.166.308-.273.424L7.422 9.155l-.56-.534s1.05-1.109 1.393-1.465c.136-.141.224-.227.317-.273a.441.441 0 01.187-.05h.001zm7.383.924A8.233 8.233 0 0124.386 16h-8.243v8.243A8.234 8.234 0 017.9 16h8.243V7.757z"
      fill="#0066B1"
    />
  </g>
  <defs>
    <clipPath id="IconBMW_svg__clip0">
      <path fill="#fff" transform="translate(.143)" d="M0 0h32v32H0z" />
    </clipPath>
  </defs>
</svg>
