<svg fill="none" xmlns="http://www.w3.org/2000/svg" viewBox="0 0 33 32">
  <g clip-path="url(#IconPeugeot_svg__clip0)">
    <path
      d="M17.762 0c4.665 0 9.508.398 14.423 1.247.073 1.97.157 5.016.017 7.6-.313 5.762-1.582 10.235-3.993 14.075-2.403 3.83-6.125 7.122-10.447 9.078-4.322-1.956-8.044-5.248-10.447-9.078-2.411-3.84-3.68-8.313-3.992-14.075-.14-2.584-.057-5.63.016-7.6A84.952 84.952 0 0117.762 0zm0 .555c-4.599 0-9.268.391-13.885 1.163-.101 2.923-.101 5.249 0 7.1.307 5.663 1.549 10.052 3.907 13.81 2.359 3.756 5.895 6.86 9.978 8.762 4.083-1.902 7.62-5.006 9.978-8.763 2.359-3.758 3.6-8.146 3.908-13.81.1-1.85.1-4.176 0-7.099A84.444 84.444 0 0017.761.555zm-.04 16.826s.09.54.118.696a.356.356 0 01-.003.2c-.064.226-.485 2.12-.718 3.5-.11.636-.205 1.267-.26 1.807-.031.306-.02.38.06.652.23.769 1.078 2.778 1.24 3.144.018.04.03.083.035.127l.061.474c-.272-.411-1.749-3.128-2.329-4.633-.068-.177-.081-.264-.005-.59.403-1.728 1.494-4.666 1.801-5.377zm-2.154-4.175c.042.122.388 1.307.415 1.59a.545.545 0 01-.038.348c-.304.808-1.222 2.817-1.575 3.488a1.54 1.54 0 01-.301.394c-.338.344-.985.995-1.386 1.36-.145.131-.184.245-.214.416-.048.275-.095.744-.108.987-.012.213.023.313.142.524.706 1.26 3.062 4.16 3.733 4.768.049.044.084.074.187.142l.42.275c.014.009.024.02.032.034l.117.205c-.3-.15-.783-.39-1.032-.524a1.004 1.004 0 01-.167-.112c-.786-.654-3.195-3.476-3.903-4.654-.177-.294-.195-.389-.171-.667.044-.519.113-1.17.173-1.456a.806.806 0 01.206-.426c1.005-1.152 2.941-3.698 3.506-4.787a.495.495 0 00.07-.283c.003-.337-.104-.994-.133-1.16a.325.325 0 01-.003-.079l.03-.383zm6.575-.633c.108.05.285.107.364.2 1.249 1.305 2.248 2.657 2.448 3.014a.573.573 0 01.074.215c.224 1.903.032 3.918-.427 5.672a.545.545 0 01-.24.353c-1.014.762-3.425 2.762-4.234 3.506a1.332 1.332 0 00-.23.279 25.8 25.8 0 00-.615 1.1 26.95 26.95 0 01-.647-1.591c-.04-.116-.047-.176-.005-.331.201-.735 1.15-2.872 1.334-3.258-.002.05.009.18-.01.226-.083.252-.593 1.936-.697 2.667a1.022 1.022 0 000 .365c.046.341.25.966.25.966.022-.055.25-.51.411-.636.945-.931 2.93-2.63 4.067-3.552.127-.103.175-.172.203-.369.141-.967.182-2.703.097-3.966a1.35 1.35 0 00-.228-.668c-.308-.455-.676-.886-1.234-1.44a.554.554 0 01-.155-.292 86.37 86.37 0 00-.526-2.46zm-10.56 2.012a.441.441 0 01.239-.009c.356.086 1.11.27 1.68.416.08.02.179.096.221.166l.124.207a.243.243 0 01.008.236c-.132.254-.268.505-.407.754l-.118.211c-.218.386-.434.759-.557.955-.081.13-.126.187-.27.238-.56.197-1.257.433-1.67.567-.085.027-.113.079-.097.173.03.17.125.751.162.92.013.063.063.113.156.095.244-.046.895-.206.895-.206l-.306.282a.194.194 0 01-.073.044c-.177.059-.61.18-.745.21-.106.023-.173-.019-.2-.138 0 0-.185-.787-.251-1.054a2.12 2.12 0 00-.034-.116c-.05-.155-.17-.46-.238-.62a.146.146 0 01-.012-.058c.002-.182.036-.588.036-.588s.399.373.591.509c.044.03.07.037.123.023.265-.068.874-.27 1.208-.395a.463.463 0 00.195-.14 9.755 9.755 0 001.03-1.559.293.293 0 00.02-.217l-.054-.178a.23.23 0 00-.122-.13 45.296 45.296 0 00-1.6-.577l.066-.021zm11.655-5.063a.543.543 0 01.4.009c.987.415 2.648 1.391 3.572 2.08.089.066.124.112.148.219.217.987.299 2.513.162 3.797a.64.64 0 01-.076.246c-.585 1.198-1.243 2.325-1.936 3.194.01-.108.059-.616.062-.911a.101.101 0 01.04-.08c.138-.108.274-.217.406-.33a.466.466 0 00.101-.114c.282-.457.787-1.413.99-1.988.05-.14.07-.29.058-.438-.065-.801-.191-1.912-.378-2.637a.445.445 0 00-.227-.286c-.162-.083-.479-.227-1.2-.517a1.02 1.02 0 01-.276-.165 44.227 44.227 0 00-1.673-1.338.575.575 0 00-.47-.1c-.336.076-.67.159-1.003.248a.416.416 0 01-.198.014c-.134-.016-.4-.037-.51-.045a27.239 27.239 0 012.008-.858zM12.794 16c-.245.403-.537.832-.758 1.1a.264.264 0 01-.112.078c-.31.114-.625.22-.941.317L12.794 16zm-3.236-.53l-.144.999-.491-.578c.09-.194.35-.377.635-.42zm-.915-2.264l-.177.112c-.045.028-.057.04-.075.08a3.589 3.589 0 01-.115.215.31.31 0 01-.062.067c-.209.16-.421.318-.636.47-.012.01-.027.005-.037-.005a2.283 2.283 0 01-.131-.151.11.11 0 01-.02-.066c0-.06.003-.119.008-.178.005-.068.025-.1.107-.186.093-.096.193-.196.3-.3.259-.219.914-.75 2.085-1.587a.256.256 0 00.058-.056c.123-.166.472-.62.558-.727a.264.264 0 01.041-.042c.11-.089.226-.17.346-.244.326-.206.958-.58 1.312-.787l-.135.166-.022.021c-.252.19-.502.382-.75.576a.15.15 0 00-.062.104c-.03.169-.08.49-.096.667-.004.052-.026.077-.08.099-.23.094-.503.193-.724.281a.29.29 0 00-.089.048 32 32 0 00-.316.28s.639-.158.873-.211a.164.164 0 01.132.015c.048.023.129.055.171.07.065.024.1.023.172.007.264-.059.708-.164.944-.226a.79.79 0 00.294-.138c.113-.079.4-.294.4-.294l-.01.06a.078.078 0 01-.021.042c-.068.08-.138.16-.21.237a.825.825 0 01-.332.224c-.671.28-1.819.715-2.679 1.013a.264.264 0 00-.122.078c-.046.046-.106.114-.106.114s.701.05.915.075c.07.008.12.031.172.077.176.152.76.752.934.96 0 0-1.657.276-2.425.467a.212.212 0 00-.163.16c-.064.223-.214.941-.214.941s-.053-.017-.127-.06a.516.516 0 01-.133-.112 7.677 7.677 0 01-.624-.773c-.042-.063-.06-.143-.007-.207.155-.192.468-.542.64-.722a.454.454 0 00.067-.102c.066-.138.138-.423.171-.552zm10.696-3.755a.24.24 0 01.144.02l.342.163a.124.124 0 01.067.084c.046.195.103.455.141.675a.399.399 0 01-.048.266c-.141.246-.432.689-.594.927a.242.242 0 00-.03.181c.074.408.381 1.832.381 1.832l-.193-.176a.28.28 0 01-.08-.123 49.273 49.273 0 01-.514-1.654.212.212 0 01.04-.193 15.8 15.8 0 00.668-.885c.048-.07.063-.147.035-.205a6.106 6.106 0 00-.17-.316.14.14 0 00-.08-.065l-.231-.074a.194.194 0 00-.124.002c-.506.183-1.185.448-1.601.62-.061.026-.086.028-.16.017-.12-.018-.471-.081-.643-.113a.046.046 0 01-.03-.068l.203-.354a.197.197 0 01.127-.094c.657-.15 1.524-.322 2.35-.467zm-7.261 1.624a.073.073 0 01.073.044.372.372 0 01-.01.294.161.161 0 01-.102.082l-.328.073a.031.031 0 01-.026-.006.03.03 0 01-.01-.025l.03-.385a.054.054 0 01.05-.049l.323-.028zm3.725-2.472a.049.049 0 01.043.073l-.798 1.376a.352.352 0 01-.207.168l-1.497.469a2.2 2.2 0 01-.501.095c-.332.025-1.319.056-1.319.056l.022-.047a.1.1 0 01.05-.049l.467-.198a.225.225 0 00.09-.067l.72-.888a.481.481 0 01.142-.122c.476-.25 1.323-.627 1.916-.825a.678.678 0 01.19-.031l.682-.01zm-.8-1.598a39.053 39.053 0 016.023-.023c.12.01.24.038.351.085.7.295 1.941.94 3.321 1.73.061.034.118.075.17.122.366.322 1.293 1.271 1.293 1.271l-.29-.057a.306.306 0 01-.112-.047 22.08 22.08 0 00-2.152-1.265.79.79 0 00-.272-.08c-.374-.038-.75-.066-1.125-.082a.87.87 0 01-.404-.108c-.283-.144-.97-.456-1.313-.586a.816.816 0 00-.364-.067c-.588.008-1.928.051-2.612.094a.326.326 0 01-.07-.004l-.325-.05c.924-.16 3.21-.364 4.156-.414l-.385-.129a.794.794 0 00-.23-.04c-1.294-.028-3.072-.023-4.577.09a.814.814 0 00-.27.067c-.43.19-1.48.76-2.532 1.344l-1.03.577.156-.202a.181.181 0 01.06-.054c.135-.09.548-.357.712-.478.317-.239.817-.66 1.115-.922a.892.892 0 00.172-.204c.097-.156.202-.325.267-.419a.355.355 0 01.267-.149zm-7.034-3.8c.408-.042.636.117.636.53v.229c0 .423-.228.594-.636.637-.565.058-1.129.122-1.692.192v.624l-.355.045v-2.02a94.269 94.269 0 012.047-.237zm18.937-.065c.9.088 1.8.188 2.696.302v.325c-.388-.049-.776-.095-1.165-.14v1.695l-.355-.04V3.587a90.83 90.83 0 00-1.176-.121V3.14zm-14.945-.266V3.2c-.74.046-1.48.1-2.219.163v.497a91.419 91.419 0 011.974-.147v.326c-.659.042-1.316.09-1.974.147v.546a92.982 92.982 0 012.22-.163v.325c-.857.053-1.712.117-2.567.193v-2.02c.855-.076 1.71-.14 2.566-.193zm11.51.554c0-.453.225-.547.73-.512.445.03.888.063 1.332.1.44.037.73.16.73.622v.902c0 .454-.251.536-.73.496-.443-.036-.887-.07-1.332-.1-.483-.033-.73-.126-.73-.606v-.902zm-3.441-.705c.857.02 1.713.053 2.57.097v.325a94.341 94.341 0 00-2.223-.087v.497c.66.018 1.318.043 1.977.075v.326a93.919 93.919 0 00-1.976-.075v.545c.74.02 1.482.05 2.222.088v.326a95.015 95.015 0 00-2.57-.097v-2.02zm-4.459-.002v1.461c0 .463-.242.564-.731.58-.426.012-.851.028-1.277.047-.453.02-.73-.066-.73-.523V2.825l.347-.018V4.33c0 .092.08.168.185.163a93.476 93.476 0 011.673-.064.176.176 0 00.176-.176V2.73l.357-.009zm8.433.507a.167.167 0 00-.185.173V4.4c0 .092.08.19.185.197.576.038 1.151.082 1.727.13a.179.179 0 00.184-.169V3.56a.21.21 0 00-.184-.2 93.64 93.64 0 00-1.727-.13zm-6.896-.53a92.751 92.751 0 011.915.006v.326a96.16 96.16 0 00-2.048-.005c-.092 0-.185.08-.185.173V4.21c0 .093.093.184.185.183a91.733 91.733 0 011.837.003V3.85c-.355-.004-.71-.006-1.066-.005v-.326c.472 0 .943.003 1.414.01v1.197a94.873 94.873 0 00-1.986-.008c-.485.003-.731-.08-.731-.552v-.88c0-.44.22-.585.665-.588zm-9.006.822h-.028c-.6.062-1.199.13-1.797.203v.744c.598-.074 1.197-.141 1.797-.203.092-.01.184-.094.184-.182v-.409c0-.092-.092-.162-.184-.153h.028z"
      fill="#000"
    />
  </g>
  <defs>
    <clipPath id="IconPeugeot_svg__clip0">
      <path fill="#fff" transform="translate(.429)" d="M0 0h32v32H0z" />
    </clipPath>
  </defs>
</svg>
