<svg fill="none" xmlns="http://www.w3.org/2000/svg" viewBox="0 0 33 32">
  <g clip-path="url(#IconHyundai_svg__clip0)" fill="#002C5F">
    <path
      d="M4.901 11.098c-.586.913-.782 1.89-.456 2.998.26.848.847 1.5 1.499 2.086.912.782 1.89 1.303 2.998 1.76 2.15.847 4.367 1.172 6.582 1.238 1.108.065 2.216 0 3.324-.13 1.108-.131 2.281-.326 3.324-.652 1.434-.391 2.803-.913 4.04-1.76.783-.521 1.435-1.108 1.89-1.955.457-.782.653-1.63.457-2.542-.13-.717-.521-1.369-1.043-1.89-.782-.847-1.694-1.434-2.737-1.89-1.173-.587-2.477-.978-3.78-1.238a19.772 19.772 0 00-2.737-.391c-.196 0-.391-.066-.652-.066h-2.02-.13c-.327 0-.718.066-1.044.066-1.107.13-2.15.26-3.258.521-1.434.391-2.868.847-4.171 1.695-.717.716-1.5 1.303-2.086 2.15zM19.044 15.4c-.196.977-.652 1.824-1.434 2.476-.26.26-.652.326-.978.391-.26 0-.521 0-.651.066-.913 0-1.76-.13-2.607-.196-.848-.13-1.695-.26-2.542-.521-.26-.066-.587-.196-.847-.261-.196-.065-.26-.26-.065-.391 1.824-1.434 3.845-2.346 6.06-2.868.587-.13 1.174-.26 1.76-.195.457 0 .848.13 1.108.586.261.261.261.587.196.913zm5.67-4.693c.065-.195.195-.39.326-.586.13-.261.26-.326.521-.196 1.173.587 1.89 1.5 2.086 2.737v.261c0 .652-.261 1.238-.652 1.76-.521.717-1.238 1.173-1.955 1.63-1.304.716-2.672 1.172-4.106 1.433-.065 0-.196 0-.196-.065v-.196l.587-.782c.717-.912 1.303-1.955 1.89-2.933.456-1.042.977-2.02 1.499-3.063zm-9.71-2.346c.455-.456.977-.652 1.628-.717 1.63-.065 3.194.13 4.758.521.391.13.847.261 1.238.392l.391.195c.13.13.13.26.066.326-.066.065-.196.13-.261.195-1.63.978-3.324 1.825-5.149 2.477-.717.195-1.369.391-2.15.456-.326 0-.652 0-.913-.13-.456-.196-.587-.587-.587-1.173 0-.848.326-1.76.978-2.542zm-3.52-.065c.26-.065.521-.065.782-.065.195 0 .26.13.13.26-.326.457-.717.913-1.043 1.369-1.238 1.695-2.346 3.52-3.063 5.475-.065.195-.13.39-.26.52-.13.262-.326.262-.587.196-.326-.13-.521-.325-.782-.521-.521-.521-.978-1.043-1.238-1.694-.066-.261-.13-.587-.196-.848h.065c0-.717.326-1.303.717-1.825A6.592 6.592 0 017.834 9.73c1.173-.652 2.412-1.043 3.65-1.434zM24.387 21.004H20.607v4.693h3.846c.065 0 .13-.065.13-.065.26-.13.456-.326.521-.587 0-.13.066-.26.066-.326v-1.694-.978c-.066-.717-.326-.977-.783-1.043zm-.651 3.063c0 .326-.13.392-.457.457h-1.368v-2.412h1.434c.195 0 .26.13.326.326v.196c.065.456.065.912.065 1.433zM30.188 21.135v-.13H26.734c-.587.065-.978.39-.978.977v3.65h1.303v-1.043h1.76v1.043h1.369v-.13-4.367zm-1.369 2.28h-1.76v-1.042c0-.196.13-.326.326-.326h1.434v1.369zM14.677 20.939h-1.108c-.13 0-.13.065-.13.13v3.063c0 .261-.066.326-.326.326H11.678V20.94H10.31v4.628h3.91c.391-.066.587-.327.587-.652v-.326-3.584c-.065 0-.065-.066-.13-.066zM19.956 22.894v-1.107a.709.709 0 00-.587-.717c-.195-.066-.39-.066-.587-.066h-3.388v4.628h1.368v-3.52-.065h1.434c.195 0 .326.065.326.326v3.259h1.434v-.066-2.672zM3.337 20.939c-.066 0-.066.065-.066.13v1.564h-1.76V20.94H.144v4.692h1.304v-1.824h1.76v1.824h1.368V21.07v-.13H3.337zM8.746 21.004c-.065 0-.13.065-.13.065-.326.457-.652.978-1.043 1.434 0 .065-.065.065-.065.13-.065-.065-.065-.065-.065-.13-.326-.456-.587-.912-.913-1.434-.065-.065-.065-.13-.195-.13H4.836c.065.065.065.13.13.13.522.782.978 1.5 1.5 2.281.195.326.325.587.325.978v1.238H8.16v-1.694c0-.065 0-.13.065-.196.586-.847 1.173-1.76 1.825-2.607 0-.065.065-.065.065-.13h-.065c-.391 0-.847 0-1.304.065zM30.84 21.135v4.497h1.303v-4.627h-1.108c-.196-.065-.196 0-.196.13z"
    />
  </g>
  <defs>
    <clipPath id="IconHyundai_svg__clip0">
      <path fill="#fff" transform="translate(.143)" d="M0 0h32v32H0z" />
    </clipPath>
  </defs>
</svg>
