<svg fill="none" xmlns="http://www.w3.org/2000/svg" viewBox="0 0 33 32">
  <g clip-path="url(#IconMercedes_svg__clip0)">
    <path
      d="M16.514 0C7.632 0 .571 7.06.571 15.83c0 8.768 7.175 15.828 15.943 15.828 8.883 0 16.057-7.06 16.057-15.829C32.571 7.174 25.397 0 16.514 0zm0 31.089c-6.035 0-10.704-3.075-12.982-7.402l.342-.114c.57.911 1.366 1.822 2.391 2.96 1.253 1.367 5.239 4.1 10.25 4.1 5.352 0 10.02-2.733 12.64-6.946.228 0 .228-.114.228-.342 1.252-2.163 2.05-4.783 2.05-7.402 0-1.594-.228-2.96-.57-4.1-.228-.91-.683-1.822-.91-2.163 0-.114 0-.114-.115-.228.114 0 .114.114.114.228.228.455.797 1.48 1.025 2.163.342.911.911 2.164.911 4.214 0 8.085-6.833 15.032-15.374 15.032zM3.76 23.345l11.16-8.085-.911-.57-10.021 8.314c-1.14-2.05-1.936-4.67-1.936-7.175 0-7.857 6.263-14.235 14.235-14.235l-2.05 12.755.91.57 1.254-13.21c0-.115.113-.115.113 0l.114 13.892 2.278-1.366-2.164-12.64c7.744.227 14.235 6.49 14.235 14.234 0 2.505-.797 5.125-1.936 7.175L19.02 14.69l-.911.57 10.704 7.744c.228.227.228.227-.114.113l-12.07-6.946v2.619l12.07 4.555c-2.505 4.1-7.06 6.72-12.299 6.72-5.238 0-9.68-2.62-12.298-6.72l12.07-4.669v-2.62l-12.526 7.29c-.114.227-.228.113.114 0zm-.342.114c-.57-1.139-1.139-2.62-1.366-3.872v-.228s.114.114.114.228c.341 1.139.683 2.164 1.48 3.644l-.228.228zm28.47-10.249s-.114-.114-.114-.228c-1.139-3.644-2.164-5.01-4.1-7.174C25.17 3.075 21.07.91 16.628.91c-8.427 0-15.26 6.833-15.26 15.26 0 2.505.57 4.669 1.025 5.694.57 1.252 1.367 2.96 1.48 3.075v.227c-.113 0-.113-.114-.113-.114-.228-.341-1.253-2.277-1.594-3.074C1.482 20.157.913 18.22.913 16.17.913 7.402 7.973.456 16.628.456c7.744 0 14.007 5.352 15.26 12.526v.228z"
      fill="#242424"
    />
  </g>
  <defs>
    <clipPath id="IconMercedes_svg__clip0">
      <path fill="#fff" transform="translate(.571)" d="M0 0h32v32H0z" />
    </clipPath>
  </defs>
</svg>
