<?xml version="1.0" standalone="no"?>
<!DOCTYPE svg PUBLIC "-//W3C//DTD SVG 20010904//EN"
 "http://www.w3.org/TR/2001/REC-SVG-20010904/DTD/svg10.dtd">
<svg version="1.0" xmlns="http://www.w3.org/2000/svg"
 width="2048.000000pt" height="502.000000pt" viewBox="0 0 2048.000000 502.000000"
 preserveAspectRatio="xMidYMid meet">

<g transform="translate(0.000000,502.000000) scale(0.100000,-0.100000)"
fill="#000000" stroke="none">
<path d="M1370 4994 c-48 -21 -107 -79 -138 -139 l-27 -50 -3 -517 c-2 -284 1
-532 6 -550 l8 -33 1335 -5 1334 -5 52 -27 c69 -37 116 -85 156 -161 l32 -62
0 -786 0 -786 -42 -84 c-92 -183 -273 -343 -479 -422 l-59 -22 -1752 -5 c-963
-3 -1753 -7 -1756 -10 -25 -28 -27 -75 -27 -585 0 -509 1 -538 19 -573 29 -56
78 -101 151 -136 l65 -31 2125 -3 c1583 -2 2148 0 2215 9 368 48 838 303 1081
587 241 281 395 603 455 952 18 104 19 161 19 620 0 278 -2 525 -5 550 -2 25
-6 268 -9 540 -6 509 -12 879 -22 1290 -4 197 -8 241 -23 275 -23 53 -99 127
-159 157 l-47 23 -2235 2 c-1978 2 -2239 1 -2270 -13z"/>
<path d="M15880 4985 c-279 -38 -524 -135 -740 -293 -105 -77 -332 -309 -412
-422 -129 -181 -232 -424 -277 -650 -41 -205 -42 -260 -39 -1205 3 -902 4
-911 26 -1018 13 -60 35 -141 49 -180 91 -255 335 -614 531 -782 213 -184 471
-311 752 -372 81 -17 192 -18 2275 -18 2133 0 2191 0 2225 19 52 28 106 90
142 164 l33 67 3 475 c2 261 0 489 -3 505 -3 17 -12 39 -21 50 -15 20 -30 20
-1722 25 -1578 5 -1711 7 -1764 23 -135 40 -289 120 -396 207 -64 52 -129 142
-163 227 l-24 58 -3 602 c-2 511 0 612 12 667 28 120 105 244 229 367 77 77
198 143 341 184 l88 25 1708 0 1709 0 21 27 c20 26 21 32 18 497 -3 524 0 498
-74 584 -47 55 -161 129 -242 158 l-67 24 -2060 -1 c-1630 -1 -2080 -4 -2155
-14z"/>
<path d="M9295 4960 c-119 -16 -225 -70 -324 -164 -125 -120 -138 -145 -397
-721 -309 -692 -694 -1547 -927 -2060 -126 -279 -364 -806 -574 -1275 -36 -80
-77 -170 -90 -200 -201 -444 -207 -462 -181 -488 9 -9 223 -12 900 -12 860 0
890 1 945 20 94 33 193 99 279 186 83 83 132 164 216 359 14 33 67 150 116
260 315 702 418 931 529 1180 157 351 173 382 218 425 l36 35 192 3 c187 3
193 2 226 -20 45 -31 68 -73 238 -445 427 -936 699 -1514 785 -1671 91 -166
205 -255 389 -304 83 -22 93 -22 926 -25 589 -3 849 -1 863 7 13 7 20 21 20
39 0 15 -61 163 -136 327 -74 164 -161 355 -191 424 -31 69 -69 154 -85 190
-44 95 -1077 2370 -1381 3040 -144 316 -277 602 -296 635 -46 79 -129 165
-192 200 -114 62 -65 59 -1099 61 -520 1 -972 -2 -1005 -6z"/>
</g>
</svg>
