<svg xmlns="http://www.w3.org/2000/svg" viewBox="0 0 2000 204.4" style="enable-background:new 0 0 2000 204.4" xml:space="preserve"><path d="m852.2 0-41.4 91.8L769.4 0H627.2v197.7h112.1V97.2L781 197.7h59.5l41.8-100.5v100.5h112V0zM1243.2 0l-41.4 91.8L1160.4 0h-142.1v197.7h112.1V97.2l41.7 100.5h59.5l41.8-100.5v100.5h112V0zM174.6 0v72.6h-55.9V0H0v197.7h118.7V123h55.9v74.7h118.7V0zM1664.7 47.6V0H1410v197.7h254.7v-47.6h-135.9v-29.6h135.9V77.2h-135.9V47.6zM433.7.1v132.6c.2 17.1 11.5 21.3 26.7 21.3 14.9 0 26.3-4.5 26.3-21.7V.1h118.4v133c0 58.7-42.7 71.3-144.7 71.3-102.1 0-145.2-12.4-145.2-71.3V.1h118.5zM1840.2 90.3c22.2 0 32.8-8.1 32.8-24.4 0-20.5-13.4-26-32.9-26h-34.7v50.5h34.8zm33.1 107.3-67.8-70.9v70.9h-118.8V0h190.7c40 0 106.3-1.1 102.8 64.9-1.7 30.8-33.9 53.3-59.5 58.9l79.3 73.9h-126.7z"/></svg>