<?xml version="1.0" encoding="UTF-8"?>
<!DOCTYPE svg PUBLIC "-//W3C//DTD SVG 1.1//EN" "http://www.w3.org/Graphics/SVG/1.1/DTD/svg11.dtd">
<!-- Creator: CorelDRAW 2019 (64-Bit) -->
<svg xmlns="http://www.w3.org/2000/svg" xml:space="preserve" width="188.556mm" height="199.939mm" version="1.1" style="shape-rendering:geometricPrecision; text-rendering:geometricPrecision; image-rendering:optimizeQuality; fill-rule:evenodd; clip-rule:evenodd"
viewBox="0 0 190.3448 201.8355"
 xmlns:xlink="http://www.w3.org/1999/xlink"
 xmlns:xodm="http://www.corel.com/coreldraw/odm/2003">
 <defs>
  <style type="text/css">
   <![CDATA[
    .str0 {stroke:#D8D9DA;stroke-width:8.0991;stroke-miterlimit:4}
    .str3 {stroke:white;stroke-width:2.1584;stroke-miterlimit:4}
    .str2 {stroke:white;stroke-width:2.8873;stroke-miterlimit:4}
    .str1 {stroke:white;stroke-width:1.1339;stroke-miterlimit:4}
    .fil1 {fill:none}
    .fil2 {fill:#FFD80E}
    .fil0 {fill:#E32124}
    .fil6 {fill:#E31E24}
    .fil5 {fill:#398A35}
    .fil3 {fill:black}
    .fil4 {fill:white}
   ]]>
  </style>
 </defs>
 <g id="Layer_x0020_1">
  <g id="_894649552">
   <path class="fil0" d="M41.6678 3.7186l-20.9718 9.042 -0.1928 0.0964c0.0455,0.1943 0.0771,0.4156 0.1048,0.6624 0.1528,1.3519 0.2188,3.4641 -1.4195,6.7893 -1.638,3.3265 -4.9801,7.8672 -7.7733,10.8264 -2.1689,2.298 -4.0036,3.6372 -5.5768,4.6131 2.0338,2.7974 4.2728,5.7111 5.9602,8.3978 2.5002,3.9791 3.7759,7.4488 3.393,11.7343 -0.3828,4.2858 -2.4237,9.3882 -4.2606,19.082 -1.8365,9.6939 -3.4689,23.9797 -3.9028,35.1274 -0.434,11.1484 0.332,19.1583 5.0769,28.7757 4.7449,9.6174 13.4696,20.8421 21.9644,28.4187 8.4952,7.5766 16.76,11.5047 23.7752,14.0813 7.0156,2.5767 12.7808,3.8008 17.4492,5.3059 4.6686,1.5054 8.2399,3.2915 11.3318,5.0541 3.0921,1.7633 5.7037,3.5032 7.0103,4.3737l1.3065 0.8705 1.3068 -0.8705c1.3066,-0.8705 3.9182,-2.6104 7.0107,-4.3737 3.0921,-1.7626 6.6633,-3.5486 11.3319,-5.0541 4.6685,-1.505 10.4334,-2.7291 17.4486,-5.3059 7.0159,-2.5766 15.2804,-6.5047 23.7762,-14.0813 8.4942,-7.5766 17.2199,-18.8013 21.9635,-28.4187 4.745,-9.6174 5.511,-17.6272 5.0769,-28.7757 -0.434,-11.1477 -2.0653,-25.4336 -3.9023,-35.1274 -1.8371,-9.6938 -3.8784,-14.7962 -4.26,-19.082 -0.383,-4.2855 0.8923,-7.7552 3.3919,-11.7343 1.8625,-2.9648 4.4018,-6.2105 6.5891,-9.266 -1.2682,-0.8923 -2.6897,-2.0683 -4.2925,-3.7663 -2.7932,-2.9591 -6.1367,-7.5 -7.7737,-10.8264 -1.6384,-3.325 -1.5731,-5.4373 -1.42,-6.7892 0.0525,-0.4624 0.1178,-0.8327 0.2696,-1.1107l-0.105 -0.061 -18.5151 -7.8488c-2.7974,1.1362 -6.1735,2.0924 -10.0575,2.5817 -7.4321,0.9391 -16.7038,0.1802 -24.1539,-0.5773 -7.4503,-0.7561 -13.0779,-1.5149 -19.6438,-1.9292 -6.5663,-0.4156 -14.0701,-0.4866 -19.9149,-0.1078 -5.8445,0.3788 -10.0292,1.2072 -14.557,2.037 -4.5278,0.8299 -9.3979,1.6597 -13.8897,0.8852 -3.3491,-0.5788 -6.487,-2.0499 -8.9541,-3.6486z"/>
   <polyline class="fil1 str0" points="41.6678,3.7186 20.696,12.7606 20.5031,12.857 "/>
   <path class="fil1 str0" d="M20.5031 12.857c0.0455,0.1943 0.0771,0.4156 0.1048,0.6624 0.1528,1.3519 0.2188,3.4641 -1.4195,6.7893 -1.638,3.3265 -4.9801,7.8672 -7.7733,10.8264 -2.1689,2.298 -4.0036,3.6372 -5.5768,4.6131 2.0338,2.7974 4.2728,5.7111 5.9602,8.3978 2.5002,3.9791 3.7759,7.4488 3.393,11.7343 -0.3828,4.2858 -2.4237,9.3882 -4.2606,19.082 -1.8365,9.6939 -3.4689,23.9797 -3.9028,35.1274 -0.434,11.1484 0.332,19.1583 5.0769,28.7757 4.7449,9.6174 13.4696,20.8421 21.9644,28.4187 8.4952,7.5766 16.76,11.5047 23.7752,14.0813 7.0156,2.5767 12.7808,3.8008 17.4492,5.3059 4.6686,1.5054 8.2399,3.2915 11.3318,5.0541 3.0921,1.7633 5.7037,3.5032 7.0103,4.3737"/>
   <polyline class="fil1 str0" points="93.6358,196.0991 94.9422,196.9695 96.249,196.0991 "/>
   <path class="fil1 str0" d="M96.249 196.0991c1.3066,-0.8705 3.9182,-2.6104 7.0107,-4.3737 3.0921,-1.7626 6.6633,-3.5486 11.3319,-5.0541 4.6685,-1.505 10.4334,-2.7291 17.4486,-5.3059 7.0159,-2.5766 15.2804,-6.5047 23.7762,-14.0813 8.4942,-7.5766 17.2199,-18.8013 21.9635,-28.4187 4.745,-9.6174 5.511,-17.6272 5.0769,-28.7757 -0.434,-11.1477 -2.0653,-25.4336 -3.9023,-35.1274 -1.8371,-9.6938 -3.8784,-14.7962 -4.26,-19.082 -0.383,-4.2855 0.8923,-7.7552 3.3919,-11.7343 1.8625,-2.9648 4.4018,-6.2105 6.5891,-9.266 -1.2682,-0.8923 -2.6897,-2.0683 -4.2925,-3.7663 -2.7932,-2.9591 -6.1367,-7.5 -7.7737,-10.8264 -1.6384,-3.325 -1.5731,-5.4373 -1.42,-6.7892 0.0525,-0.4624 0.1178,-0.8327 0.2696,-1.1107"/>
   <polyline class="fil1 str0" points="171.4588,12.3875 171.3538,12.3265 152.8387,4.4777 "/>
   <path class="fil1 str0" d="M152.8387 4.4777c-2.7974,1.1362 -6.1735,2.0924 -10.0575,2.5817 -7.4321,0.9391 -16.7038,0.1802 -24.1539,-0.5773 -7.4503,-0.7561 -13.0779,-1.5149 -19.6438,-1.9292 -6.5663,-0.4156 -14.0701,-0.4866 -19.9149,-0.1078 -5.8445,0.3788 -10.0292,1.2072 -14.557,2.037 -4.5278,0.8299 -9.3979,1.6597 -13.8897,0.8852 -3.3491,-0.5788 -6.487,-2.0499 -8.9541,-3.6486"/>
   <path class="fil0" d="M42.7236 4.5059l-20.972 9.0405 -0.1929 0.0964c0.0456,0.1957 0.0771,0.417 0.1049,0.6639 0.153,1.3518 0.219,3.4626 -1.4196,6.7892 -1.638,3.3265 -4.9799,7.8658 -7.7733,10.825 -2.1687,2.298 -4.0035,3.6372 -5.5765,4.6131 2.0336,2.7974 4.2728,5.7125 5.96,8.3978 2.5003,3.9805 3.7758,7.4488 3.393,11.7343 -0.3829,4.2862 -2.4238,9.3886 -4.2606,19.0824 -1.837,9.6944 -3.4689,23.9797 -3.9029,35.1274 -0.4337,11.1484 0.332,19.1583 5.0769,28.7757 4.7452,9.6175 13.4693,20.8421 21.9645,28.4188 8.4946,7.5765 16.76,11.5046 23.7752,14.0813 7.0158,2.5766 12.7808,3.8007 17.4487,5.3063 4.6685,1.505 8.2404,3.291 11.3323,5.0541 3.092,1.7633 5.7036,3.5027 7.0101,4.3732l1.3068 0.8705 1.3066 -0.8705c1.3066,-0.8705 3.9182,-2.6099 7.0107,-4.3732 3.0921,-1.7631 6.6634,-3.549 11.3319,-5.0541 4.6685,-1.5055 10.4336,-2.7296 17.4488,-5.3063 7.0157,-2.5767 15.2801,-6.5048 23.7758,-14.0813 8.4943,-7.5767 17.2198,-18.8013 21.9636,-28.4188 4.745,-9.6174 5.5111,-17.6272 5.077,-28.7757 -0.4328,-11.1477 -2.0654,-25.4331 -3.9025,-35.1274 -1.837,-9.6938 -3.8782,-14.7962 -4.2614,-19.0824 -0.3816,-4.2855 0.8937,-7.7538 3.3947,-11.7343 1.8611,-2.9633 4.4004,-6.2105 6.5878,-9.2646 -1.2683,-0.8922 -2.6897,-2.0682 -4.2926,-3.7662 -2.7945,-2.9605 -6.1351,-7.5014 -7.7736,-10.8264 -1.6385,-3.3266 -1.5732,-5.4387 -1.42,-6.7906 0.0525,-0.4624 0.1178,-0.8327 0.2696,-1.1093l-0.105 -0.061 -18.5151 -7.8489c-2.7973,1.1349 -6.1734,2.0909 -10.0574,2.5819 -7.4321,0.9376 -16.7043,0.1801 -24.154,-0.5774 -7.4501,-0.7575 -13.0777,-1.5163 -19.6436,-1.9306 -6.5661,-0.4142 -14.0701,-0.4866 -19.915,-0.1078 -5.8443,0.3788 -10.0291,1.2087 -14.5568,2.0385 -4.5278,0.8299 -9.3979,1.6598 -13.8898,0.8838 -3.3492,-0.5788 -6.4872,-2.0499 -8.9539,-3.6472z"/>
   <path class="fil0" d="M42.7236 4.5059l-20.972 9.0405 -0.1929 0.0964c0.0456,0.1957 0.0771,0.417 0.1049,0.6639 0.153,1.3518 0.219,3.4626 -1.4196,6.7892 -1.638,3.3265 -4.9799,7.8658 -7.7733,10.8264 -2.1687,2.2966 -4.0035,3.6358 -5.5765,4.6117 2.0336,2.7974 4.2728,5.7125 5.96,8.3978 2.5003,3.9805 3.7758,7.4488 3.393,11.7343 -0.3829,4.2862 -2.4238,9.3886 -4.2606,19.0824 -1.837,9.6944 -3.4689,23.9797 -3.9029,35.1274 -0.4337,11.1484 0.332,19.1583 5.0769,28.7757 4.7452,9.6175 13.4693,20.8421 21.9645,28.4188 8.4946,7.5765 16.76,11.5046 23.7752,14.0813 7.0158,2.5766 12.7803,3.8007 17.4487,5.3063 4.6685,1.505 8.2404,3.291 11.3323,5.0541 3.092,1.7633 5.7036,3.5027 7.0101,4.3732l1.3068 0.8705 1.3066 -0.8705c1.3066,-0.8705 3.9182,-2.6099 7.0107,-4.3732 3.0921,-1.7631 6.6634,-3.549 11.3319,-5.0541 4.6685,-1.5055 10.4336,-2.7296 17.4488,-5.3063 7.0157,-2.5767 15.2801,-6.5048 23.7758,-14.0813 8.4943,-7.5767 17.2198,-18.8013 21.9636,-28.4188 4.745,-9.6174 5.5111,-17.6272 5.077,-28.7757 -0.4328,-11.1477 -2.0654,-25.4331 -3.9025,-35.1274 -1.837,-9.6938 -3.8782,-14.7962 -4.2614,-19.0824 -0.3816,-4.2855 0.8937,-7.7538 3.3947,-11.7343 1.8611,-2.9633 4.4004,-6.2105 6.5878,-9.2646 -1.2683,-0.8922 -2.6897,-2.0682 -4.2926,-3.7662 -2.7945,-2.9605 -6.1351,-7.5014 -7.7736,-10.8264 -1.6385,-3.3266 -1.5732,-5.4387 -1.42,-6.7906 0.0525,-0.4624 0.1178,-0.8327 0.2696,-1.1093l-0.105 -0.061 -18.5151 -7.8489c-2.7973,1.1349 -6.1734,2.0909 -10.0574,2.5819 -7.4321,0.9376 -16.7043,0.1801 -24.154,-0.5774 -7.4501,-0.7575 -13.0777,-1.5163 -19.6436,-1.9306 -6.5661,-0.4142 -14.0701,-0.4866 -19.915,-0.1078 -5.8443,0.3788 -10.0291,1.2087 -14.5568,2.0385 -4.5278,0.8299 -9.3979,1.6598 -13.8898,0.8838 -3.3492,-0.5788 -6.4872,-2.0499 -8.9539,-3.6472z"/>
   <path class="fil2" d="M42.7236 4.5059l-20.972 9.0405 -0.1929 0.0964c0.0456,0.1957 0.0771,0.417 0.1049,0.6639 0.153,1.3518 0.219,3.4626 -1.4196,6.7892 -1.638,3.3265 -4.9799,7.8658 -7.7733,10.825 -2.1687,2.298 -4.0035,3.6372 -5.5765,4.6131 2.0336,2.7974 4.2728,5.7125 5.96,8.3978 2.5003,3.9805 3.7758,7.4488 3.393,11.7343 -0.3829,4.2862 -2.4238,9.3886 -4.2606,19.0824 -1.837,9.6944 -3.4694,23.9797 -3.9029,35.1274 -0.4337,11.1484 0.332,19.1583 5.0769,28.7757 1.1088,2.2474 2.4365,4.5831 3.9267,6.9393l162.2829 -74.0069c-1.6441,-7.6868 -3.2825,-12.1247 -3.6217,-15.9179 -0.3816,-4.2855 0.8937,-7.7538 3.3947,-11.7343 1.8611,-2.9633 4.4004,-6.2105 6.5878,-9.2646 -1.2683,-0.8922 -2.6897,-2.0682 -4.2926,-3.7662 -2.7945,-2.9605 -6.1351,-7.5014 -7.7736,-10.8264 -1.6385,-3.3266 -1.5732,-5.4387 -1.42,-6.7906 0.0525,-0.4624 0.1178,-0.8327 0.2696,-1.1093l-0.105 -0.061 -18.5151 -7.8489c-2.7973,1.1349 -6.1721,2.0909 -10.0574,2.5819 -7.4321,0.9376 -16.7043,0.1801 -24.154,-0.5774 -7.4501,-0.7575 -13.0777,-1.5163 -19.6436,-1.9306 -6.5661,-0.4142 -14.0701,-0.4866 -19.915,-0.1078 -5.8443,0.3788 -10.0291,1.2087 -14.5568,2.0385 -4.5278,0.8299 -9.3979,1.6598 -13.8898,0.8838 -3.3492,-0.5788 -6.4872,-2.0499 -8.9539,-3.6472z"/>
   <path class="fil3" d="M42.7236 4.5059l-20.972 9.0405 -0.1929 0.0964c0.0456,0.1957 0.0771,0.417 0.1049,0.6639 0.153,1.3518 0.219,3.4626 -1.4196,6.7892 -1.638,3.3265 -4.9799,7.8658 -7.7733,10.8264 -0.8754,0.9263 -1.6939,1.6923 -2.4652,2.3462l173.921 0c-0.7788,-0.6582 -1.6044,-1.4328 -2.4882,-2.3675 -2.7945,-2.9605 -6.1351,-7.5014 -7.7736,-10.8264 -1.6385,-3.3266 -1.5732,-5.4387 -1.42,-6.7906 0.0525,-0.4624 0.1178,-0.8327 0.2696,-1.1093l-0.105 -0.061 -18.5151 -7.8489c-2.7973,1.1349 -6.1721,2.0909 -10.0574,2.5819 -7.4321,0.9376 -16.7043,0.1801 -24.154,-0.5774 -7.4501,-0.7575 -13.0777,-1.5163 -19.6436,-1.9306 -6.5661,-0.4142 -14.0701,-0.4866 -19.915,-0.1078 -5.8443,0.3788 -10.0291,1.2087 -14.5568,2.0385 -4.5278,0.8299 -9.3979,1.6598 -13.8898,0.8838 -3.3492,-0.5788 -6.4872,-2.0499 -8.9539,-3.6472z"/>
   <path class="fil4" d="M82.1307 10.1405l-8.056 15.0111c0.0056,-0.1404 0.0094,-0.2808 0.0094,-0.4284 0,-1.359 -0.272,-2.2796 -0.8157,-2.7604 -0.5441,-0.4809 -1.5259,-0.8341 -2.9469,-1.0582 0.5265,-0.1376 0.9298,-0.2582 1.211,-0.3604 0.298,-0.1035 0.6139,-0.3021 0.9469,-0.5943 0.3507,-0.2922 0.5874,-0.6881 0.7103,-1.1874 0.1403,-0.5149 0.2107,-1.1349 0.2107,-1.8569 0,-1.6512 -0.4649,-3.6074 -1.3946,-4.2613 -0.9299,-0.6539 -2.2731,-1.0582 -4.0252,-0.9802l-18.0075 0.8044 0 15.8325 -9.3879 -14.2649 -7.6541 0.8128 -10.4646 14.8295 6.3581 0 1.8561 -2.691 12.1243 0 1.7726 2.691 23.6662 0c1.5837,0 2.8304,-0.2142 3.7438,-0.6383l-0.342 0.6383 6.3702 0 1.8602 -3.545 12.1475 0 1.776 3.545 11.3112 0 0 -4.8231 9.1031 0c1.271,0 1.9782,0.2738 2.1217,0.8185 0.1611,0.5447 0.2416,1.2782 0.2416,2.1988l0 1.8059 5.5319 0 0 -3.6102c0,-1.2413 -0.2953,-2.1052 -0.886,-2.5932 -0.5914,-0.5078 -1.5128,-0.8469 -2.7662,-1.0156 1.146,-0.3958 1.8979,-0.6965 2.2558,-0.9022 0.3579,-0.2256 0.6715,-0.5547 0.9397,-0.9874 0.2689,-0.451 0.4478,-0.9773 0.537,-1.5788 0.0897,-0.6015 0.1345,-1.3264 0.1345,-2.1718 0,-0.1121 -0.0025,-0.2199 -0.0049,-0.3263l7.5401 0.2156 0 12.9699 6.4006 0 0 -12.4819 10.176 0.3249 0 12.157 5.7579 0 0 -4.9082 13.0451 0.8114 0 4.0968 5.7863 0 0 -12.5571 -5.7863 -0.7575 0 4.9068 -13.0451 -0.9192 0 -6.6388 -5.7579 -0.7036 -25.9735 -1.3533 0 0.6284c-0.9333,-0.6228 -2.3084,-0.9064 -4.127,-0.9561l-16.6766 -0.4596 0 17.9461 -9.8049 -18.6739 -7.7228 0zm3.7768 4.2174l0 0 4.0307 7.7339 -8.0612 0 4.0306 -7.7339zm19.203 1.0794l0 0 9.0765 0c0.3225,0 0.5997,0.01 0.8323,0.0284 0.2328,0.0185 0.5282,0.0837 0.886,0.1973 0.3764,0.1121 0.6179,0.3191 0.7254,0.6199 0.1251,0.3006 0.1879,0.7618 0.1879,1.3816 0,1.1093 -0.1518,1.8242 -0.4566,2.1434 -0.3042,0.3206 -1.0739,0.4795 -2.309,0.4795l-8.9425 0 0 -4.8501zm-38.8876 0.4511l0 0c0.5462,0.0099 0.9662,0.1205 1.2577,0.2851 0.3509,0.1901 0.5258,0.9207 0.5258,1.5066 0,0.6525 -0.1839,1.0753 -0.5524,1.264 -0.3507,0.1901 -0.8772,0.2837 -1.5787,0.2837l-10.561 0 0 -2.9931 10.6669 -0.3447c0.0832,-0.0014 0.1633,-0.0028 0.2417,-0.0014zm-29.5222 2.1619l0 0 4.023 5.8685 -8.0453 0 4.0223 -5.8685zm18.6136 4.5833l0 0 11.1402 0c0.8943,0 1.4909,0.1291 1.7892,0.3873 0.3153,0.2581 0.4732,0.6184 0.4732,1.0838 0,0.8596 -0.2367,1.359 -0.7105,1.4966 -0.4732,0.1205 -1.0168,0.1802 -1.6307,0.1802l-11.0614 0 0 -3.1479z"/>
   <path class="fil5" d="M9.2568 34.8801c-0.8473,0.6667 -1.6348,1.2029 -2.3627,1.654 0.8151,1.1206 1.659,2.2611 2.4917,3.3974l98.3773 0c1.0482,-1.4313 2.1206,-2.8683 3.1202,-4.2643 -0.3401,-0.2397 -0.6927,-0.5021 -1.0555,-0.7872l-100.571 0z"/>
   <path class="fil1 str1" d="M9.2568 34.8801c-0.8473,0.6667 -1.6348,1.2029 -2.3627,1.654 0.8151,1.1206 1.659,2.2611 2.4917,3.3974"/>
   <line class="fil1 str1" x1="9.3858" y1="39.9316" x2="107.7631" y2= "39.9316" />
   <path class="fil1 str1" d="M107.7631 39.9316c1.0482,-1.4313 2.1206,-2.8683 3.1202,-4.2643 -0.3401,-0.2397 -0.6927,-0.5021 -1.0555,-0.7872"/>
   <line class="fil1 str1" x1="109.8278" y1="34.8801" x2="9.2568" y2= "34.8801" />
   <path class="fil6" d="M92.1618 34.8801c-0.8473,0.6667 -1.6347,1.2029 -2.3627,1.654 0.8151,1.1206 1.6589,2.2611 2.4918,3.3974l90.3191 0c1.0483,-1.4313 2.1206,-2.8683 3.1208,-4.2643 -0.3405,-0.2397 -0.6922,-0.5021 -1.0554,-0.7872l-92.5136 0z"/>
   <path class="fil1 str1" d="M92.1618 34.8801c-0.8473,0.6667 -1.6347,1.2029 -2.3627,1.654 0.8151,1.1206 1.6589,2.2611 2.4918,3.3974"/>
   <line class="fil1 str1" x1="92.2909" y1="39.9316" x2="182.61" y2= "39.9316" />
   <path class="fil1 str1" d="M182.61 39.9316c1.0483,-1.4313 2.1206,-2.8683 3.1208,-4.2643 -0.3405,-0.2397 -0.6922,-0.5021 -1.0554,-0.7872"/>
   <line class="fil1 str1" x1="184.6754" y1="34.8801" x2="92.1618" y2= "34.8801" />
   <polygon class="fil1 str1" points="64.8856,39.9316 128.3316,39.9316 128.3316,34.8802 64.8856,34.8802 "/>
   <polygon class="fil4" points="64.8856,39.9316 128.3316,39.9316 128.3316,34.8802 64.8856,34.8802 "/>
   <path class="fil3" d="M129.6581 49.8032l-41.128 3.4641 28.2487 13.0961 -14.6117 6.7098 25.5427 3.7886 9.5244 -8.5502 5.9528 11.7968 -32.2534 8.7673 2.0566 13.9616 45.4562 -20.6725 -28.7883 -32.3617zm-16.6679 53.0342l0 0 -23.5785 10.0584 24.715 -9.896 14.8278 -0.0549 2.1106 -1.6773 -1.7322 5.7905 -14.1242 0.4872 1.0286 4.5996 14.0697 0.1081 1.5154 -1.8939 0 5.0873 -14.0159 0.7575 1.0823 4.4368 13.4207 -0.3241 1.8399 -1.2446 0 5.3029 -14.0162 0.7576 1.7861 4.6541 12.1758 -0.6495 1.9481 -1.7859 -0.7575 5.5739 -12.8794 0.4333 0.4872 3.4632 -6.6018 4.167 -6.1153 0.1081 -0.2167 -2.4624 -10.3361 10.3903 -3.4393 -2.6963 2.6547 -0.1175 8.7667 -10.336 -3.2737 -3.68 -10.228 10.3633 -3.7607 -3.6258 2.5705 -0.3517 8.4415 -9.3077 -2.9491 -3.1391 -9.3351 9.389 -4.7616 -3.5714 3.3545 -0.2166 7.5761 -9.7409 -2.7057 -2.922 -8.6577 9.1996 -4.5466 -2.4897 2.5984 -0.6494 8.0088 -11.0392 -0.5415 -1.1904 -43.5087 19.9142 -5.8443 -41.7769 29.7636 -28.1401 -8.4421 29.6551 13.529 -7.1433 -13.4209 21.4295 -12.6634 2.1648 5.9529 12.1216 26.625 -18.8318 8.0088 10.6064 -0.9736 -15.4765 9.0909 -0.3253 5.412 -6.2771 10.0653 12.0138zm-43.3464 34.0381l0 0 -8.3883 26.4083 10.8233 -3.7879 -2.435 -22.6204zm53.3039 1.3531l0 0 -5.466 4.4375 -7.5222 0 0 12.0139 3.3553 1.786 9.6328 0 0 -18.2374zm-14.1784 18.1287l0 0 3.1928 2.76 9.2089 0.1529c-7.3449,8.0759 -12.9432,15.2157 -12.9432,15.2157l-6.2771 -4.762 -0.379 -4.3565 7.1975 -9.0101zm-35.8245 4.5454l0 0 13.5827 9.1459 -1.7861 3.5175 3.951 4.9246 -19.3732 -15.4773 3.6256 -2.1107zm26.3539 5.6826l0 0 -10.8768 3.5714 -1.7859 3.8965 2.0021 3.9504 16.6389 -2.4703 -4.8956 -4.4562 -1.0828 -4.4918z"/>
   <polygon class="fil1 str2" points="129.6581,49.8032 88.5301,53.2674 116.7788,66.3635 102.1671,73.0734 127.7098,76.862 137.2342,68.3117 143.187,80.1086 110.9336,88.8758 112.9902,102.8374 158.4464,82.1649 "/>
   <polygon class="fil1 str2" points="112.9902,102.8374 102.9249,90.8236 97.5129,97.1007 88.422,97.426 89.3956,112.9025 81.3868,102.2961 54.7618,121.128 48.8089,109.0064 61.4723,106.8415 74.8932,85.412 61.3642,92.5553 69.8063,62.9002 40.0426,91.0403 45.8869,132.8172 89.3956,112.903 89.9371,114.0934 81.9283,125.1326 79.3299,125.782 83.8765,128.2717 92.5342,119.0721 95.2399,121.994 87.6639,131.7349 84.3093,131.9516 89.071,135.5229 98.4061,126.1339 101.3552,129.273 92.9137,138.5806 90.3432,138.9324 94.104,142.5581 104.332,132.1948 107.6056,135.8748 98.839,146.2108 96.1842,146.3283 99.6235,149.0247 109.9596,138.6344 110.1764,141.0968 116.2916,140.9887 122.8935,136.8217 122.4063,133.3585 135.2857,132.9252 136.0432,127.3513 134.0951,129.1372 121.9193,129.7867 120.1332,125.1326 134.1494,124.375 134.1494,119.0721 132.3095,120.3166 118.8888,120.6408 117.8066,116.204 131.8225,115.4465 131.8225,110.3592 130.307,112.2531 116.2373,112.145 115.2088,107.5454 129.333,107.0582 131.0651,101.2677 128.9545,102.9449 114.1267,102.9998 89.4117,112.8958 "/>
   <polygon class="fil1 str2" points="69.6438,136.8755 61.2555,163.2838 72.0788,159.496 "/>
   <polygon class="fil1 str2" points="122.9478,138.2286 117.4818,142.6661 109.9596,142.6661 109.9596,154.68 113.315,156.466 122.9478,156.466 "/>
   <polyline class="fil1 str2" points="108.7694,156.3574 101.5718,165.3674 101.9508,169.724 108.2279,174.486 "/>
   <path class="fil1 str2" d="M108.2279 174.486c0,0 5.5983,-7.1398 12.9432,-15.2157"/>
   <polyline class="fil1 str2" points="121.1711,159.2703 111.9622,159.1174 108.7694,156.3574 "/>
   <polygon class="fil1 str2" points="72.9449,160.9028 69.3193,163.0135 88.6925,178.4908 84.7415,173.5663 86.5276,170.0487 "/>
   <polygon class="fil1 str2" points="99.2988,166.5854 88.422,170.1567 86.6361,174.0532 88.6382,178.0037 105.2771,175.5333 100.3815,171.0772 "/>
   <path class="fil3" d="M129.6581 49.8032l-41.128 3.4641 28.2487 13.0961 -14.6117 6.7098 25.5427 3.7886 9.5244 -8.5502 5.9528 11.7968 -32.2534 8.7673 2.0566 13.9616 45.4562 -20.6725 -28.7883 -32.3617zm-16.6679 53.0342l0 0 -23.5785 10.0584 24.715 -9.896 14.8278 -0.0549 2.1106 -1.6773 -1.7322 5.7905 -14.1242 0.4872 1.0286 4.5996 14.0697 0.1081 1.5154 -1.8939 0 5.0873 -14.0159 0.7575 1.0823 4.4368 13.4207 -0.3241 1.8399 -1.2446 0 5.3029 -14.0162 0.7576 1.7861 4.6541 12.1758 -0.6495 1.9481 -1.7859 -0.7575 5.5739 -12.8794 0.4333 0.4872 3.4632 -6.6018 4.167 -6.1153 0.1081 -0.2167 -2.4624 -10.3361 10.3903 -3.4393 -2.6963 2.6547 -0.1175 8.7667 -10.336 -3.2737 -3.68 -10.228 10.3633 -3.7607 -3.6258 2.5705 -0.3517 8.4415 -9.3077 -2.9491 -3.1391 -9.3351 9.389 -4.7616 -3.5714 3.3545 -0.2166 7.5761 -9.7409 -2.7057 -2.922 -8.6577 9.1996 -4.5466 -2.4897 2.5984 -0.6494 8.0088 -11.0392 -0.5415 -1.1904 -43.5087 19.9142 -5.8443 -41.7769 29.7636 -28.1401 -8.4421 29.6551 13.529 -7.1433 -13.4209 21.4295 -12.6634 2.1648 5.9529 12.1216 26.625 -18.8318 8.0088 10.6064 -0.9736 -15.4765 9.0909 -0.3253 5.412 -6.2771 10.0653 12.0138zm-43.3464 34.0381l0 0 -8.3883 26.4083 10.8233 -3.7879 -2.435 -22.6204zm53.3039 1.3531l0 0 -5.466 4.4375 -7.5222 0 0 12.0139 3.3553 1.786 9.6328 0 0 -18.2374zm-14.1784 18.1287l0 0 3.1928 2.76 9.2089 0.1529c-7.3449,8.0759 -12.9432,15.2157 -12.9432,15.2157l-6.2771 -4.762 -0.379 -4.3565 7.1975 -9.0101zm-35.8245 4.5454l0 0 13.5827 9.1459 -1.7861 3.5175 -15.4222 -10.5527 3.6256 -2.1107zm26.3539 5.6826l0 0 -10.8768 3.5714 -1.7859 3.8965 2.0021 3.9504 16.6389 -2.4703 -4.8956 -4.4562 -1.0828 -4.4918z"/>
   <line class="fil1 str3" x1="180.1742" y1="73.0051" x2="17.0871" y2= "146.591" />
   <path class="fil5" d="M9.2568 34.8801c-0.8473,0.6667 -1.6348,1.2029 -2.3627,1.654 0.8151,1.1206 1.659,2.2611 2.4917,3.3974l98.3773 0c1.0482,-1.4313 2.1206,-2.8683 3.1202,-4.2643 -0.3401,-0.2397 -0.6927,-0.5021 -1.0555,-0.7872l-100.571 0z"/>
   <path class="fil6" d="M92.1618 34.8801c-0.8473,0.6667 -1.6347,1.2029 -2.3627,1.654 0.8151,1.1206 1.6589,2.2611 2.4918,3.3974l90.3191 0c1.0483,-1.4313 2.1206,-2.8683 3.1208,-4.2643 -0.3405,-0.2397 -0.6922,-0.5021 -1.0554,-0.7872l-92.5136 0z"/>
   <polygon class="fil4" points="64.8856,39.9316 128.3316,39.9316 128.3316,34.8802 64.8856,34.8802 "/>
  </g>
 </g>
</svg>
