<svg fill="none" xmlns="http://www.w3.org/2000/svg" viewBox="0 0 33 32">
  <g clip-path="url(#IconAudi_svg__clip0)">
    <path
      d="M27.178 10.464A5.512 5.512 0 0023.69 11.7a5.513 5.513 0 00-3.488-1.237 5.512 5.512 0 00-3.488 1.237 5.513 5.513 0 00-3.488-1.237A5.513 5.513 0 009.738 11.7a5.536 5.536 0 100 8.597 5.512 5.512 0 003.488 1.238 5.512 5.512 0 003.488-1.238 5.512 5.512 0 003.488 1.238 5.512 5.512 0 003.488-1.238 5.536 5.536 0 103.488-9.835zm-3.488 8.024A4.264 4.264 0 0122.893 16c0-.928.296-1.787.797-2.488.502.701.798 1.56.798 2.488 0 .928-.296 1.787-.798 2.488zm-6.976 0A4.264 4.264 0 0115.917 16c0-.928.296-1.787.797-2.488.502.701.798 1.56.798 2.488 0 .928-.296 1.787-.798 2.488zm-6.976 0A4.264 4.264 0 018.941 16c0-.928.296-1.787.797-2.488.502.701.798 1.56.798 2.488 0 .928-.296 1.787-.798 2.488zM1.965 16A4.285 4.285 0 018.858 12.6 5.511 5.511 0 007.69 16c0 1.281.438 2.461 1.168 3.398A4.285 4.285 0 011.965 16zm8.653 3.398A5.512 5.512 0 0011.786 16a5.512 5.512 0 00-1.168-3.399 4.27 4.27 0 012.608-.887c.982 0 1.886.331 2.608.887A5.506 5.506 0 0014.666 16c0 1.281.438 2.461 1.168 3.398a4.27 4.27 0 01-2.608.887c-.981 0-1.885-.33-2.608-.887zm6.976 0A5.506 5.506 0 0018.762 16a5.518 5.518 0 00-1.168-3.4 4.27 4.27 0 012.608-.887c.982 0 1.886.33 2.608.887a5.506 5.506 0 00-1.168 3.399c0 1.28.438 2.46 1.168 3.398a4.27 4.27 0 01-2.608.887 4.252 4.252 0 01-2.608-.886zm9.584.887c-.981 0-1.885-.33-2.608-.887A5.514 5.514 0 0025.738 16 5.512 5.512 0 0024.57 12.6a4.285 4.285 0 112.608 7.684z"
      fill="#BB0A30"
    />
  </g>
  <defs>
    <clipPath id="IconAudi_svg__clip0">
      <path fill="#fff" transform="translate(.714)" d="M0 0h32v32H0z" />
    </clipPath>
  </defs>
</svg>
