<svg fill="none" xmlns="http://www.w3.org/2000/svg" viewBox="0 0 33 32">
  <g clip-path="url(#IconFiat_svg__clip0)">
    <path
      d="M28.914 8.333c.652 1.531.968 3.256.968 5.275 0 1.09-.09 2.253-.274 3.555-.382 2.68-1.398 5.48-2.334 7.325-.152.297-.273.495-.517.71-.427.377-.803.47-.941.389-.112-.067-.175-.403-.152-.898.018-.421.118-.733.272-1.232a48.359 48.359 0 001.6-7.221c.513-3.552.493-6.747-.268-8.693-.077-.2-.176-.391-.294-.57-.082-.12-.141-.181-.141-.181-1.575-1.577-5.827-2.368-10.08-2.368s-8.504.79-10.077 2.368c0 0-.06.06-.142.181a2.83 2.83 0 00-.294.568c-.763 1.947-.782 5.143-.268 8.695.346 2.41.896 4.96 1.636 7.339.128.409.21.688.23 1.12.022.492-.04.826-.152.893-.138.08-.518-.013-.946-.393-.307-.274-.46-.54-.654-.935-.906-1.847-1.857-4.53-2.222-7.097a25.179 25.179 0 01-.275-3.555c0-2.019.317-3.743.968-5.272a6.1 6.1 0 012.376-2.777 18.523 18.523 0 018.701-2.83c.362-.022.724-.033 1.087-.034h.027c.365 0 .73.013 1.09.034 3.043.184 6.052 1.164 8.7 2.83a6.111 6.111 0 012.376 2.776v-.002zm-6.35 19.368c-.118.026-.482.111-.843.21-.324.089-.644.16-.796.19-1.37.258-2.76.385-4.153.38h-.038a22 22 0 01-4.152-.38c-.25-.051-.5-.11-.746-.177a20.103 20.103 0 00-.806-.197c-.557-.127-1.061-.218-1.089-.111-.033.124.216.384.535.63.074.055.26.186.476.293.2.097.426.17.514.2 1.464.473 3.128.669 5.255.669h.03c2.083 0 3.725-.19 5.169-.644.494-.156.786-.281 1.137-.56.293-.232.513-.47.481-.587-.026-.1-.464-.028-.974.084zm-3.344-13.75c-.194-1.08-.427-1.91-.691-2.467l-.003-.005h-.028l-.909-.008h-.013l-.036 3.997h1.901l-.001-.013c0-.007-.075-.696-.22-1.504zM26.9 16.2c-.43 2.97-1.174 6.164-2.214 8.935-.173.466-.33.64-.706.933a8.309 8.309 0 01-3.242 1.37 20.92 20.92 0 01-3.965.363h-.039a20.877 20.877 0 01-3.964-.362 8.307 8.307 0 01-3.244-1.371c-.376-.293-.532-.467-.702-.933C7.78 22.364 7.037 19.17 6.609 16.2c-.497-3.436-.467-6.463.24-8.27.09-.226.184-.389.253-.491.062-.087.104-.134.104-.134C8.63 5.88 12.62 5.103 16.753 5.103c4.135 0 8.124.776 9.547 2.204 0 0 .042.044.104.133.069.101.165.263.253.49.708 1.807.739 4.834.243 8.27zm-14.347-6.113l-3.576-.02.356 12.449 1.496.016-.021-5.667h1.352v-1.462h-1.352v-3.856h1.746v-1.462l-.001.002zm2.501-.027l-1.82.004.242 12.467h1.542l.036-12.47v-.001zm4.598.019h-3.643l.144 12.445h1.456l.012-5.63h1.89l.003.01c.171 1.063.184 5.561.184 5.607v.02h1.418l.012-.639c.064-3.227.173-8.625-1.476-11.813zm5.76-.018l-4.459.018v1.436h1.33v.013l-.055 11.003h1.509l.367-11.016h1.308V10.06zM32.648 16c0 8.823-7.163 16-15.968 16C7.877 32 .714 24.823.714 16S7.877 0 16.681 0c8.805 0 15.968 7.177 15.968 16h-.001zm-.44-.01C32.2 7.414 25.238.44 16.678.44 8.204.44 1.294 7.284 1.158 15.748a2.28 2.28 0 01.912-1.04c.874-.517 1.112-1.847 1.191-2.641l.016-.083a16.207 16.207 0 00-.093 1.624c0 1.11.093 2.29.28 3.61.549 3.867 2.417 8.01 3.516 9.278l.061.067.256.269.01.008c2.68 2.196 5.142 2.973 9.414 2.973h.03c4.27 0 6.733-.777 9.413-2.973l.012-.008.246-.263.07-.074c1.101-1.272 2.968-5.41 3.517-9.276.187-1.32.279-2.502.279-3.611 0-.605-.028-1.187-.086-1.745l.008.008c.08.796.506 2.854 1.327 3.448.28.202.5.422.67.67z"
      fill="#941711"
    />
  </g>
  <defs>
    <clipPath id="IconFiat_svg__clip0">
      <path fill="#fff" transform="translate(.714)" d="M0 0h32v32H0z" />
    </clipPath>
  </defs>
</svg>
