<svg fill="none" xmlns="http://www.w3.org/2000/svg" viewBox="0 0 33 32">
  <g clip-path="url(#IconSkoda_svg__clip0)">
    <path
      d="M16.802 0C7.966.03.826 7.22.857 16.055.887 24.892 8.077 32.032 16.912 32c8.836-.03 15.975-7.22 15.945-16.055C32.827 7.11 25.637-.03 16.802 0zm.055 2.846c3.514 0 6.817 1.368 9.302 3.853A13.066 13.066 0 0130.012 16c0 3.513-1.369 6.817-3.853 9.301a13.068 13.068 0 01-9.302 3.853A13.07 13.07 0 017.555 25.3 13.067 13.067 0 013.702 16c0-3.514 1.369-6.817 3.853-9.301a13.07 13.07 0 019.302-3.853zm.152 1.591a11.682 11.682 0 00-3.364.492.575.575 0 00-.24.13.29.29 0 00-.09.187c-.01.134.073.263.19.364 1.037.887 2.428 2.214 3.41 3.86-.55.011-.985-.293-1.359-.652-1.328-1.263-2.71-2.164-3.806-2.78-.198-.11-.414-.162-.623-.042-1.21.703-2.03 1.37-2.99 2.483-.09.104-.113.215-.08.306.033.09.111.155.198.201 1.028.545 2.633 1.578 4.115 2.914a.683.683 0 01-.49.093c-.238-.034-.53-.145-.879-.327-1.358-.713-2.662-1.124-3.657-1.38-.232-.06-.489.007-.613.222-.64 1.111-1.08 2.437-1.288 3.783a.524.524 0 00.438.593c1.154.202 2.755.574 4.15 1.483 1.395.91 2.584 2.352 2.924 4.711a.491.491 0 01-.178.465c-.132.1-.325.133-.559.024l-2.084-.977a.63.63 0 00-.26-.068H6.598c-.25 0-.44.123-.517.3-.078.176-.043.399.12.586.786.904 1.506 1.88 2.122 2.915a.3.3 0 00.273.154h1.43a.56.56 0 00.293-.08l1.35-.79c.07-.041.137-.04.235-.04h10.78c.06 0 .112.019.148.05a.165.165 0 01.057.131v.53c0 .227.205.4.428.366a6.768 6.768 0 003.565-1.75.423.423 0 000-.616 6.763 6.763 0 00-3.564-1.75.372.372 0 00-.429.365v.485a.298.298 0 01-.061.173c-.038.05-.086.079-.137.079-.106 0-.21.002-.314 0-.164-.003-.25-.096-.299-.231a.765.765 0 01-.013-.43c.795-2.852.99-4.584.98-5.848-.01-1.337-.044-2.679-.649-4.45-.58-1.694-1.119-3.373-3.928-5.917a1.065 1.065 0 00-.673-.288c-.262-.02-.524-.029-.786-.029zm2.038 12.94a1.51 1.51 0 010 3.018 1.509 1.509 0 010-3.018z"
      fill="#4BA82E"
    />
  </g>
  <defs>
    <clipPath id="IconSkoda_svg__clip0">
      <path fill="#fff" transform="translate(.857)" d="M0 0h32v32H0z" />
    </clipPath>
  </defs>
</svg>
