<svg width="24" height="20" viewBox="0 0 24 20" fill="none" xmlns="http://www.w3.org/2000/svg">
<path d="M23.9034 4.86996C23.5744 1.65096 21.4334 0.973962 19.5494 0.664962C18.6034 0.504962 16.9194 0.365962 15.8334 0.325962C14.8874 0.265962 12.6654 0.235962 11.9984 0.235962C11.3404 0.235962 9.10838 0.265962 8.16238 0.325962C7.08638 0.365962 5.39238 0.505962 4.44638 0.664962C2.56338 0.983962 0.420376 1.65996 0.092376 4.86896C0.012376 5.74596 -0.00762396 6.89196 0.00237604 8.11696C0.032376 10.149 0.202376 11.524 0.302376 12.481C0.371376 13.138 0.640376 15.101 0.989376 16.117C1.46738 17.512 1.90538 17.92 2.41338 18.339C3.35038 19.096 4.88438 19.335 5.20338 19.395C6.93638 19.704 10.4434 19.763 11.9884 19.763C13.5324 19.763 17.0384 19.713 18.7724 19.395C19.1014 19.335 20.6354 19.105 21.5624 18.339C22.0704 17.92 22.5084 17.512 22.9864 16.117C23.3364 15.101 23.6144 13.138 23.6844 12.481C23.7844 11.524 23.9634 10.149 23.9834 8.11696C24.0234 6.89196 23.9934 5.74596 23.9034 4.86896V4.86996ZM22.7274 10.269C22.5384 12.839 22.3094 14.374 21.9804 15.489C21.6914 16.466 21.3434 17.113 20.8154 17.582C19.9484 18.369 18.7524 18.538 18.0554 18.638C16.5414 18.867 14.0004 18.937 11.9984 18.937C9.99538 18.937 7.45438 18.857 5.94038 18.637C5.24338 18.538 4.04738 18.369 3.18038 17.582C2.66238 17.113 2.30438 16.456 2.02538 15.489C1.69638 14.384 1.46738 12.839 1.27838 10.269C1.16838 8.72496 1.18838 6.21396 1.35838 4.86896C1.61638 2.85696 2.61338 1.84996 4.74538 1.47196C5.74138 1.29196 7.08538 1.16296 8.35138 1.10296C9.36738 1.03296 11.0514 1.00296 11.9884 1.01296C12.9244 1.00296 14.6084 1.04296 15.6244 1.10296C16.8994 1.16296 18.2344 1.29296 19.2304 1.47196C21.3724 1.84996 22.3694 2.86696 22.6184 4.86896C22.8174 6.21396 22.8474 8.72496 22.7284 10.269H22.7274ZM17.5264 1.87996C16.9784 4.34096 16.7594 5.46696 16.3104 7.24996C15.8824 8.96396 15.5434 10.548 14.9754 11.315C14.3884 12.092 13.6104 12.262 13.0824 12.321C12.8034 12.351 12.6044 12.361 12.0164 12.371C11.4194 12.371 11.2194 12.351 10.9404 12.321C10.4124 12.261 9.62538 12.092 9.04838 11.315C8.47038 10.548 8.14138 8.96396 7.71338 7.24996C7.24438 5.47696 7.03538 4.34096 6.47738 1.87996C6.47738 1.87996 5.92938 1.89996 5.68038 1.91996C5.35138 1.93996 5.09238 1.96996 4.81338 2.00996C4.81338 2.00996 5.13338 7.07096 5.27238 9.21296C5.42238 11.465 5.69038 15.27 5.93938 18.14C5.93938 18.14 6.39738 18.21 7.16538 18.26C7.97238 18.309 8.33038 18.309 8.33038 18.309C8.65938 17.044 9.07738 15.29 9.53638 14.543C9.91438 13.935 10.5024 13.866 10.8314 13.826C11.3494 13.756 11.7874 13.746 11.9974 13.746C12.1964 13.736 12.6344 13.746 13.1624 13.826C13.4914 13.876 14.0794 13.936 14.4574 14.543C14.9264 15.29 15.3344 17.043 15.6634 18.309C15.6634 18.309 16.0214 18.299 16.8284 18.259C17.2389 18.2412 17.6482 18.2011 18.0544 18.139C18.3034 15.27 18.5724 11.474 18.7214 9.21296C18.8614 7.07096 19.1804 2.00996 19.1804 2.00996C18.9004 1.96996 18.6424 1.93996 18.3134 1.91996C18.0834 1.89996 17.5264 1.87996 17.5264 1.87996Z" fill="#E40521"/>
</svg>
