<svg fill="none" xmlns="http://www.w3.org/2000/svg" viewBox="0 0 33 32">
  <g clip-path="url(#IconFord_svg__clip0)">
    <path
      d="M16.28 10.433C7.454 10.433.286 12.928.286 16c0 3.084 7.166 5.566 16.005 5.566 8.84 0 15.995-2.482 15.995-5.566 0-3.072-7.156-5.567-16.006-5.567zm.011.483c8.521 0 15.441 2.282 15.441 5.084 0 2.813-6.92 5.084-15.44 5.084C7.758 21.084.85 18.814.85 16c0-2.8 6.908-5.084 15.44-5.084h.001zm-4.187.912c-.226 0-.456.01-.685.03-1.519.128-2.977.987-2.977 2.294 0 .66.47 1.2 1.2 1.177.86-.024 1.565-.719 1.93-1.577.13-.318-.129-.459-.246-.27-.214.34-.531.6-.86.764-.4.188-.835.142-.966-.188-.176-.47.2-1.153 1.072-1.484 1.259-.458 2.566-.152 3.836.083.012 0 .083.036.024.07-.224.118-.448.225-.8.52-.248.222-.577.506-.824.811-.248.307-.424.576-.66.883-.034.047-.069.047-.069.047-.577.093-1.13.165-1.648.517-.107.07-.141.213-.083.307.059.093.188.106.283.034a1.67 1.67 0 011.024-.364c.01 0 .023 0 .023.011.013 0 .013.013 0 .024-.564.79-.707.965-1.13 1.448-.214.236-.438.464-.67.683-.966.893-2 .882-2.378.317-.224-.341-.188-.693-.046-.988.186-.365.54-.624.846-.777.118-.059.154-.2.036-.33-.07-.093-.248-.106-.377-.082a2.02 2.02 0 00-1.553 2.165c.093.99.906 1.565 1.836 1.553.729-.01 1.424-.234 2.248-1.07.776-.8 1.493-1.978 2.153-3.072.024-.035.036-.059.141-.07a33.537 33.537 0 011.424-.13c.083-.01.107-.012.142.036.093.13.258.234.377.306.07.035.093.047.14.047.06 0 .107-.024.13-.06.047-.047.06-.105.035-.14-.024-.048-.293-.2-.306-.26-.011-.035.036-.047.036-.047a.874.874 0 00.541-.436c.13-.246.141-.564-.083-.74-.2-.165-.493-.13-.741.082a.903.903 0 00-.283.79c.014.046 0 .07-.058.07-.364.022-.718.034-1.107.058-.035 0-.035-.013-.023-.036.447-.776 1.118-1.329 1.859-1.882.048-.036.036-.107.036-.166 1.341.294 2.636.836 4.025.824.564 0 1.118-.082 1.647-.376.46-.258.648-.482.66-.729.01-.165-.107-.27-.27-.236-1.4.33-2.743.317-4.143.153-1.598-.196-3.13-.6-4.719-.594h.001zm9.107.512c0 .012.012.012.012.022 0-.01-.012-.022-.012-.022zm-6.293 1.744c.033 0 .064.01.09.033.071.059.036.223-.034.33a.554.554 0 01-.342.246c-.024.013-.046 0-.058-.059a.558.558 0 01.176-.482.258.258 0 01.168-.068zm10.424.021c-.059 0-.094.012-.13.07-.093.189-1.293 1.978-1.518 2.331-.035.06-.082.047-.094-.013-.024-.21-.2-.447-.482-.552a1.218 1.218 0 00-.648-.07c-.387.046-.742.258-1.047.493-.47.353-.87.813-1.39 1.154-.28.187-.67.342-.929.107-.236-.213-.212-.696.154-1.072.034-.036.082-.012.07.024a.48.48 0 00.142.459c.152.141.376.153.576.058a.76.76 0 00.4-.577.652.652 0 00-.6-.741c-.294-.023-.588.082-.859.318-.134.106-.25.233-.341.376-.024.047-.071.047-.071-.012.012-.482-.188-.764-.59-.776-.317-.013-.646.164-.906.364-.287.255-.555.53-.8.824-.035.036-.057.036-.07-.034a1.789 1.789 0 00-.235-.86c-.059-.082-.166-.118-.259-.059-.047.024-.188.093-.307.177-.058.047-.07.107-.046.187a2.25 2.25 0 01-.083 1.496c-.176.424-.53.812-.941.941-.271.083-.554.047-.73-.2-.236-.329-.141-.906.212-1.389.318-.423.766-.693 1.224-.859.059-.024.059-.058.047-.106a2.324 2.324 0 00-.083-.223c-.046-.107-.152-.13-.306-.117a2.564 2.564 0 00-.918.306c-.764.411-1.153 1.211-1.329 1.635-.083.2-.153.33-.236.447-.117.153-.27.294-.552.541-.024.024-.048.07-.024.119.058.103.129.198.212.282.047.023.093-.013.117-.024.201-.136.383-.298.542-.482.036-.047.082-.024.106.046a1.213 1.213 0 00.764.824c.707.236 1.436-.106 1.99-.706.353-.376.482-.623.612-.787.224-.284.682-.92 1.213-1.32.2-.152.423-.259.54-.187.093.06.13.2-.024.47-.541 1-1.353 2.166-1.493 2.46-.024.048 0 .082.046.082h.824c.047 0 .059-.024.082-.046.424-.66.813-1.283 1.236-1.93.024-.036.048-.013.048.011.008.172.052.34.129.493a.734.734 0 00.635.354 1.2 1.2 0 00.518-.106c.176-.07.318-.153.423-.224.06-.046.07.036.07.036-.093.518.025 1.142.542 1.388.624.307 1.307-.129 1.695-.506.036-.035.082-.035.082.048.01.168.08.328.2.446.33.331.99.2 1.66-.317.424-.33.871-.8 1.271-1.283.012-.024.024-.046 0-.082-.059-.059-.153-.142-.212-.2-.023-.023-.07-.012-.093 0-.414.388-.79.848-1.319 1.213-.176.13-.47.223-.6.059-.047-.07-.047-.166 0-.283.176-.413 2.66-4.201 2.79-4.427.022-.034 0-.069-.047-.069h-.86zm-2.616 2.373a.41.41 0 01.18.04c.306.14.212.494.07.776-.012.024-.012.035-.012.06 0 .023.048.058.083.07.012 0 .024.012 0 .046-.107.224-.2.354-.33.554-.118.172-.261.326-.423.458-.247.214-.6.436-.883.283-.13-.07-.188-.247-.176-.388.01-.412.187-.824.517-1.236.335-.41.694-.659.974-.661v-.002z"
      fill="#003478"
    />
  </g>
  <defs>
    <clipPath id="IconFord_svg__clip0">
      <path fill="#fff" transform="translate(.286)" d="M0 0h32v32H0z" />
    </clipPath>
  </defs>
</svg>
