<svg fill="none" xmlns="http://www.w3.org/2000/svg" viewBox="0 0 32 32">
  <path
    d="M0 13.355l31.973 5.947c-.028.876-.082 3.616-.137 5.204-.055 1.89-.467 3.041-1.233 3.753-1.068.96-2.33 1.179-5.343 1.343-6.959.384-14.053.33-22.959-.302-.932-.053-1.288-.246-1.452-.355-.384-.274-.438-.575-.548-2.138C.22 25.74.083 22.643.028 21.602c4.136.274 10.465.493 15.616.493 1.288 0 4.657.027 5.561.027.712 0 1.644-.19 2.11-.93L0 17.217v-3.863zm.027-1.67C.055 10.67.109 8.15.164 6.67c.055-1.89.467-3.041 1.233-3.753 1.068-.96 2.33-1.179 5.343-1.343 6.959-.384 14.053-.33 22.959.301.932.054 1.288.247 1.452.356.384.274.438.575.548 2.138.054.904.192 3.314.246 4.63-3.068-.165-8.274-.412-12.794-.468-4.52-.053-8.603.028-9.096.084-.987.136-1.452.603-1.59.794L32 13.767v3.424L.027 11.685z"
    fill="#33302E"
  />
</svg>
