<?xml version="1.0" encoding="utf-8"?>
<!-- Generator: Adobe Illustrator 25.0.0, SVG Export Plug-In . SVG Version: 6.00 Build 0)  -->
<svg version="1.1" id="katman_1" xmlns="http://www.w3.org/2000/svg" xmlns:xlink="http://www.w3.org/1999/xlink" x="0px" y="0px"
	 viewBox="0 0 560 400" style="enable-background:new 0 0 560 400;" xml:space="preserve">
<style type="text/css">
	.st0{fill-rule:evenodd;clip-rule:evenodd;fill:#D50000;}
	.st1{fill-rule:evenodd;clip-rule:evenodd;}
</style>
<path class="st0" d="M444.7,167.9l-55.4,64.2h27.2l55.3-64.1L444.7,167.9z M483,167.9l-55.4,64.2h27.2L510,168L483,167.9z"/>
<path class="st1" d="M164.7,183.3c-7.9,0-35.5,0.7-35.5,13.3c0,8.9,12.9,11.4,23.6,12.6c7.6,0.8,14,0.8,14,0.8s6,0.2,13.3-0.2
	c11.3-0.6,25.6-3.2,25.6-13.2c0-13.2-37.5-13.3-38.9-13.3C166.6,183.4,165.9,183.3,164.7,183.3L164.7,183.3z M90.6,183.7l-36.6,0
	c0,0-1.7-0.1-2.7,0.7c-1,0.7-1,2.4-1,2.4L50,206.7c0,3.1,3.5,2.8,3.5,2.8l38.4,0c0,0,12.6,0.3,21.2-2.6c5.6-1.9,8.5-5.6,8.5-10.2
	c0-5.2-5-8.8-11.8-10.7C101.3,183.6,90.6,183.7,90.6,183.7L90.6,183.7z M253.9,183.7l-36.6,0c0,0-1.7-0.1-2.7,0.7
	c-1,0.7-1,2.4-1,2.4l-0.3,19.9c0,3.1,3.5,2.8,3.5,2.8l38.4,0c0,0,12.6,0.3,21.2-2.6c5.6-1.9,8.6-5.6,8.6-10.2c0-5.2-5-8.8-11.8-10.7
	C264.6,183.6,253.9,183.7,253.9,183.7L253.9,183.7z M363.5,183.7c-0.3,0-42.5,0-42.5,0s-3.2,0-7.3,0.4c-8.4,0.8-21,3.3-21,12.5
	c0,4.3,2.3,7.3,6.3,9.2c8.7,3.9,23.9,3.6,23.9,3.6h37.9c3.3,0,3.7-2,3.7-3.3c0-1.3,0.1-6.6,0.1-9.6c0-3-3.3-2.8-3.3-2.8h-33.7
	c-1.5,0-1.5,1.2-1.5,1.2s-0.1,1.6-0.1,2.9c0,1.4,1.4,1.3,1.4,1.3h19.5c1.3,0,1.4,1,1.4,1v2.3c0,1.2-1.3,1.3-1.3,1.3h-22.3
	c-3.5,0-15.5,0-15.5-7.4c0-7.4,14.3-7.4,14.3-7.4h39.9c1.6,0,1.4-1.9,1.4-1.9v-2.4C364.6,183.8,363.8,183.7,363.5,183.7L363.5,183.7
	z M376.5,183.8c-3,0-4,0.5-4,3.2c-0.1,2.2-0.3,15.8-0.3,19c0,3.1,1.7,3.6,3.8,3.6h61.1c1.4,0,1.3-1.1,1.3-1.3v-3
	c0-1.2-1.7-1.1-1.7-1.1h-46.2c-1.8,0-1.7-1.1-1.7-1.1s0-1.1,0-2.2c0-1.2,1.1-1.4,1.6-1.4h43.5c1.3,0,1.3-1.2,1.3-1.2v-3
	c0-1.3-1.6-1.3-1.6-1.3h-43.4c-1.4,0-1.5-1.5-1.5-1.5l0-1.6c0-1.4,1.4-1.5,1.4-1.5h45.9c1.4,0,1.5-1,1.5-1.9v-2.4
	c0-1.2-1.6-1.1-1.6-1.1L376.5,183.8L376.5,183.8z M166.9,188.8c3.8,0,22.4,0.3,22.4,7.9c0,8.1-17.3,7.7-22.4,7.7
	c-5.1,0-21.1-0.3-21.1-7.7C145.8,188.6,163.1,188.8,166.9,188.8z M90.9,189.2c0,0,5.1,0.2,9.1,1.7c3.1,1.2,5.2,3.3,5.2,5.8
	c0,2.1-1.4,4.2-3.8,5.3c-4.2,1.9-10.5,2-10.5,2l-23.6,0c0,0-1.3,0-1.3-1.2c0,0,0.2-12.2,0.2-12.4c0-0.2,0-1.2,1.4-1.2
	C69.2,189.2,90.9,189.2,90.9,189.2L90.9,189.2z M254.2,189.2c0,0,5.2,0.2,9.1,1.7c3.1,1.2,5.2,3.3,5.2,5.8c0,2.1-1.4,4.2-3.8,5.3
	c-4.2,1.9-10.5,2-10.5,2l-23.6,0c0,0-1.3,0-1.3-1.2c0,0,0.2-12.2,0.2-12.4c0-0.2,0-1.2,1.4-1.2C232.5,189.2,254.2,189.2,254.2,189.2
	L254.2,189.2z"/>
</svg>
