<svg fill="none" xmlns="http://www.w3.org/2000/svg" viewBox="0 0 33 32">
  <g clip-path="url(#IconOpel_svg__clip0)">
    <path
      d="M32.15 17.595c-.165-.01-3.353-.213-3.372-.216.028-.343.044-.686.044-1.028C28.777 9.486 23.176 3.955 16.31 4a12.43 12.43 0 00-12.021 9.591H1.545a.481.481 0 00-.38.185l-.685.974c-.125.15-.005.396.192.386.192.012 3.313.204 3.372.21-.029.342-.043.685-.044 1.028-.001 6.866 5.564 12.434 12.43 12.435a12.433 12.433 0 0012.123-9.66h2.741a.477.477 0 00.38-.187l.706-.97c.13-.167-.014-.438-.23-.398zM16.387 5.372c6.069.006 10.988 4.924 10.995 10.994 0 .312-.017.62-.04.925l-9.191-.583 3.989-2.741c.165-.105.081-.384-.116-.377H5.751a11.008 11.008 0 0110.636-8.218zm0 21.99c-6.07-.009-10.987-4.927-10.994-10.996 0-.313 0-.62.042-.926l9.193.572-3.981 2.741c-.166.11-.08.387.12.38h16.26a11.013 11.013 0 01-10.64 8.228z"
      fill="#000"
    />
  </g>
  <defs>
    <clipPath id="IconOpel_svg__clip0">
      <path fill="#fff" transform="translate(.429)" d="M0 0h32v32H0z" />
    </clipPath>
  </defs>
</svg>
