<svg fill="none" xmlns="http://www.w3.org/2000/svg" viewBox="0 0 32 32">
  <path
    d="M16 0C7.147 0 0 7.147 0 16s7.147 16 16 16 16-7.147 16-16S24.853 0 16 0zm0 1.88c1.6 0 3.147.293 4.573.787l-4.4 9.506c-.053.054-.053.174-.173.174s-.12-.12-.173-.174l-4.4-9.506A14.009 14.009 0 0116 1.893V1.88zM9.2 3.653l5.093 10.974c.107.226.227.293.374.293h2.666c.16 0 .267-.067.387-.293l5.027-10.974a14.75 14.75 0 015.2 4.974L20.8 22.453c-.053.12-.133.174-.173.174-.107 0-.107-.107-.174-.174L17.72 16.4c-.12-.227-.227-.28-.387-.28h-2.666c-.147 0-.267.053-.387.28l-2.733 6.053c-.067.067-.054.174-.174.174s-.12-.107-.173-.174L4 8.627c1.253-2.054 3.093-3.774 5.2-4.974zm-6.453 7.72l8.226 16c.107.227.227.4.52.4.28 0 .387-.173.507-.4l3.827-8.52c.053-.106.12-.186.173-.186.12 0 .12.133.173.186l3.88 8.52c.12.227.227.4.52.4.28 0 .4-.173.507-.4l8.253-16c.494 1.427.787 2.974.787 4.627-.067 7.72-6.4 14.12-14.12 14.12-7.72 0-14.053-6.4-14.053-14.12 0-1.6.28-3.133.8-4.627z"
    fill="#151F5D"
  />
</svg>
