<svg fill="none" xmlns="http://www.w3.org/2000/svg" viewBox="0 0 33 32">
  <g clip-path="url(#IconKia_svg__clip0)">
    <path
      d="M19.42 18.665c0 .062.02.096.056.096a.163.163 0 00.077-.032l9.973-6.472a.96.96 0 01.576-.173h2.192c.336 0 .563.224.563.56v4.185c0 .507-.112.8-.56 1.068l-2.659 1.6a.182.182 0 01-.09.032c-.031 0-.063-.025-.063-.117v-4.884c0-.057-.016-.095-.055-.095a.152.152 0 00-.077.032L22.065 19.2a.977.977 0 01-.56.17h-4.832c-.339 0-.563-.225-.563-.563v-6.032c0-.044-.02-.086-.058-.086a.158.158 0 00-.076.032l-4.81 2.884c-.048.032-.061.055-.061.078 0 .018.01.038.043.073l3.436 3.433c.045.046.077.08.077.119 0 .032-.052.057-.112.057h-3.105c-.244 0-.432-.034-.564-.166l-2.083-2.08a.089.089 0 00-.064-.032.136.136 0 00-.064.02L5.189 19.2a.96.96 0 01-.564.163H1.424c-.343.002-.567-.224-.567-.559v-4.107c0-.506.112-.8.563-1.066l2.677-1.61a.138.138 0 01.07-.021c.042 0 .063.04.063.133v5.499c0 .057.014.084.055.084a.192.192 0 00.08-.032l9.035-5.439a.977.977 0 01.594-.165h4.864c.336 0 .563.224.563.56l-.003 6.024.003.001z"
      fill="#000"
    />
  </g>
  <defs>
    <clipPath id="IconKia_svg__clip0">
      <path fill="#fff" transform="translate(.857)" d="M0 0h32v32H0z" />
    </clipPath>
  </defs>
</svg>
