<svg
  width="33"
  height="27"
  viewBox="0 0 33 27"
  fill="none"
  xmlns="http://www.w3.org/2000/svg"
>
  <path
    d="M16.1989 14.6374C16.1509 14.6374 16.0589 14.5761 15.9029 14.2907C15.25 13.0751 14.3535 12.0072 13.2695 11.1534C12.4188 10.4862 11.4745 9.94799 10.4669 9.55608C10.3142 9.49405 10.1608 9.43361 10.0069 9.37475C8.65753 8.84142 7.25886 8.29075 5.9602 7.53875C5.81624 7.45726 5.67399 7.3728 5.53353 7.28541C5.7922 6.83208 6.09353 6.39875 6.42686 6.00275C6.91061 5.42454 7.47296 4.91695 8.09753 4.49475C8.76811 4.0464 9.49305 3.68527 10.2549 3.42008C11.8789 2.84141 13.8242 2.55741 16.1989 2.55475C18.5762 2.55741 20.5202 2.84142 22.1442 3.42142C22.9066 3.68569 23.632 4.0464 24.3029 4.49475C24.9309 4.92008 25.4922 5.42675 25.9735 6.00142C26.3069 6.39875 26.6069 6.83208 26.8669 7.28541C26.7295 7.37075 26.5842 7.45742 26.4402 7.54142C25.1389 8.29342 23.7429 8.84408 22.3909 9.37608L21.9309 9.55742C20.9242 9.94965 19.9808 10.4879 19.1309 11.1547C18.0464 12.0085 17.1499 13.0771 16.4975 14.2934C16.3415 14.5774 16.2482 14.6387 16.1989 14.6387V14.6374ZM16.1989 24.0681C14.1402 24.0654 12.4682 23.8961 11.0922 23.5521C9.74153 23.2161 8.61886 22.6987 7.65753 21.9681C6.92062 21.4022 6.29188 20.7079 5.80153 19.9187C5.34216 19.1824 4.97919 18.3902 4.72153 17.5614C4.31969 16.2734 4.10988 14.9333 4.09886 13.5841C4.09886 12.6854 4.16153 11.8334 4.27886 11.0494C5.75353 11.8441 7.14953 12.2427 8.38553 12.5961L8.6722 12.6761C10.3922 13.1707 11.7575 13.8187 12.8522 14.6601C13.4855 15.1507 14.0389 15.7174 14.4922 16.3454C14.9842 17.0227 15.3762 17.7961 15.6615 18.6454C15.7895 19.0307 15.9282 19.2694 16.1989 19.2694C16.4749 19.2694 16.6095 19.0294 16.7389 18.6454C17.2478 17.0623 18.2279 15.6724 19.5482 14.6614C20.6415 13.8187 22.0082 13.1707 23.7282 12.6761L24.0162 12.5961C25.2509 12.2427 26.6469 11.8441 28.1202 11.0494C28.2402 11.8347 28.3015 12.6854 28.3015 13.5827C28.3015 14.1934 28.2402 15.8014 27.6815 17.5614C27.424 18.39 27.0615 19.1822 26.6029 19.9187C26.111 20.7085 25.4804 21.4027 24.7415 21.9681C23.7775 22.6987 22.6549 23.2161 21.3095 23.5521C19.9295 23.8961 18.2589 24.0654 16.1989 24.0681ZM29.1215 4.66008C26.5762 1.92675 22.4682 0.673415 16.1989 0.666748C9.9322 0.673415 5.8242 1.92542 3.27886 4.65875C1.38686 6.68675 0.200195 9.49341 0.200195 13.3014C0.200195 15.4067 0.720195 20.7681 4.9522 23.5361C7.48553 25.1921 10.7575 26.2641 16.1989 26.2721C21.6429 26.2641 24.9135 25.1921 27.4482 23.5361C31.6789 20.7681 32.2002 15.4054 32.2002 13.3014C32.2002 9.50408 31.0042 6.67741 29.1202 4.65741L29.1215 4.66008Z"
    fill="#101010"
  />
</svg>
