<?xml version="1.0" standalone="no"?>
<!DOCTYPE svg PUBLIC "-//W3C//DTD SVG 20010904//EN"
 "http://www.w3.org/TR/2001/REC-SVG-20010904/DTD/svg10.dtd">
<svg version="1.0" xmlns="http://www.w3.org/2000/svg"
 width="3840.000000pt" height="2160.000000pt" viewBox="0 0 3840.000000 2160.000000"
 preserveAspectRatio="xMidYMid meet">

<g transform="translate(0.000000,2160.000000) scale(0.100000,-0.100000)"
fill="#000000" stroke="none">
<path d="M18870 21347 c-3 -2 -81 -7 -175 -10 -597 -22 -1309 -124 -1943 -277
-1643 -399 -3136 -1177 -4429 -2307 -310 -271 -754 -722 -1038 -1053 -1412
-1644 -2284 -3688 -2494 -5841 -41 -414 -46 -528 -46 -1049 0 -525 6 -673 46
-1075 153 -1550 647 -3045 1450 -4387 668 -1116 1566 -2126 2604 -2929 1557
-1204 3437 -1946 5385 -2123 543 -50 1243 -56 1759 -16 1644 129 3192 626
4590 1473 2001 1212 3562 3087 4388 5272 405 1071 645 2245 680 3325 3 107 9
200 14 206 5 6 3 16 -4 24 -9 10 -9 11 1 6 9 -6 12 41 12 219 0 178 -3 225
-12 219 -8 -5 -7 0 2 11 8 10 10 16 4 12 -8 -5 -12 22 -13 96 -4 312 -50 824
-112 1242 -438 2953 -2116 5588 -4609 7240 -1339 887 -2844 1445 -4435 1645
-197 24 -433 47 -585 55 -63 4 -126 9 -140 11 -34 7 -894 17 -900 11z m840
-1351 c19 -2 80 -7 135 -11 548 -32 1289 -161 1815 -315 58 -17 128 -37 155
-45 106 -29 519 -169 590 -200 17 -7 80 -32 140 -56 61 -23 138 -55 173 -71
34 -15 65 -28 67 -28 2 0 30 -12 62 -26 509 -229 953 -473 1378 -757 99 -66
182 -122 185 -126 3 -3 34 -26 69 -50 35 -24 71 -50 80 -57 9 -7 45 -34 81
-61 36 -26 70 -51 75 -55 6 -4 73 -58 150 -119 948 -756 1744 -1704 2335
-2784 97 -177 289 -564 310 -625 11 -33 7 -46 -68 -230 -168 -413 -422 -953
-576 -1224 -31 -54 -56 -100 -56 -102 0 -10 -200 -336 -296 -482 -359 -545
-773 -1007 -1203 -1341 -120 -94 -401 -282 -411 -276 -4 2 -10 54 -14 115 -18
301 -76 795 -132 1128 -137 822 -357 1585 -654 2278 -92 213 -282 604 -359
737 -28 49 -51 90 -51 93 0 12 -199 335 -308 498 -294 444 -589 803 -987 1202
-324 325 -694 637 -1025 867 -193 134 -569 377 -584 377 -2 0 -34 18 -70 40
-36 22 -68 40 -72 40 -3 0 -18 8 -32 19 -42 29 -481 250 -637 320 -210 94
-239 106 -369 157 -50 19 -129 51 -176 69 -127 50 -481 167 -680 224 -816 234
-1630 355 -2437 364 -78 1 -139 4 -135 8 4 3 113 40 242 82 742 242 1560 391
2320 423 85 4 157 8 159 10 6 6 767 -4 811 -10z m-3874 -747 c261 -71 600
-190 813 -285 20 -9 56 -26 81 -36 193 -85 550 -272 775 -405 101 -60 469
-299 498 -323 7 -6 57 -42 112 -82 55 -39 104 -75 110 -80 5 -5 55 -43 110
-85 297 -229 533 -439 855 -762 442 -443 791 -865 1122 -1356 1288 -1909 1767
-4129 1372 -6362 -18 -106 -50 -264 -69 -350 -20 -87 -38 -169 -41 -183 -13
-65 -61 -245 -119 -445 -251 -869 -638 -1744 -1153 -2610 -135 -227 -312 -503
-444 -695 -63 -91 -134 -194 -158 -230 -25 -35 -129 -177 -232 -314 -103 -138
-186 -252 -184 -253 6 -7 438 88 724 158 839 204 1649 475 2317 774 33 15 80
36 105 47 182 82 649 315 695 348 6 4 51 29 100 55 50 26 102 56 117 66 14 11
29 19 32 19 4 0 23 11 44 24 20 13 87 54 147 91 2034 1255 3303 3094 3794
5498 164 800 239 1590 237 2499 -1 236 2 428 5 428 11 0 166 -409 255 -675
439 -1319 574 -2705 398 -4100 -226 -1791 -975 -3479 -2154 -4851 -435 -507
-919 -959 -1458 -1366 -247 -186 -669 -466 -884 -587 -21 -12 -54 -30 -73 -41
-88 -50 -114 -65 -165 -93 -86 -47 -427 -219 -505 -254 -38 -18 -95 -43 -125
-56 -30 -14 -77 -35 -105 -47 l-50 -23 -130 33 c-169 42 -520 158 -670 220
-11 4 -41 17 -67 29 -26 12 -51 21 -54 21 -14 0 -250 109 -437 203 -160 80
-410 217 -487 267 -8 5 -40 24 -70 42 -70 41 -389 253 -500 332 -536 383
-1089 888 -1535 1401 -338 389 -593 734 -890 1200 -145 228 -432 762 -550
1025 -402 891 -644 1799 -735 2750 -41 432 -43 1070 -4 1500 103 1148 406
2233 944 3370 362 767 874 1597 1447 2348 68 89 119 162 112 162 -28 0 -509
-107 -764 -170 -251 -62 -620 -163 -810 -221 -375 -115 -997 -338 -1203 -431
-34 -15 -65 -28 -67 -28 -5 0 -130 -55 -245 -107 -30 -14 -71 -32 -90 -41 -78
-34 -520 -253 -595 -295 -44 -24 -111 -61 -150 -82 -38 -21 -99 -56 -134 -77
-34 -21 -65 -38 -66 -38 -4 0 -110 -65 -245 -150 -509 -319 -997 -703 -1424
-1120 -1074 -1050 -1809 -2369 -2196 -3945 -138 -564 -235 -1182 -284 -1815
-28 -352 -37 -629 -37 -1064 0 -236 -4 -425 -8 -420 -5 5 -40 90 -79 189 -330
845 -527 1681 -607 2570 -48 535 -48 1133 0 1670 205 2293 1247 4406 2945
5974 361 333 836 701 1230 951 63 40 138 88 165 105 62 40 267 159 360 210
190 105 241 131 385 201 200 98 396 188 450 207 28 10 47 7 196 -34z m-2336
-8613 c0 -8 7 -99 15 -203 178 -2235 906 -4084 2169 -5508 126 -141 427 -445
581 -584 227 -205 371 -323 590 -487 66 -49 122 -92 125 -95 6 -7 407 -273
480 -318 224 -139 731 -409 950 -505 36 -16 83 -37 105 -47 22 -10 69 -30 105
-44 62 -26 87 -36 163 -69 17 -8 57 -23 87 -34 30 -11 118 -43 195 -72 776
-286 1761 -491 2580 -536 66 -3 131 -8 145 -9 14 -2 117 -3 230 -4 114 0 200
-5 195 -10 -13 -11 -345 -120 -520 -170 -647 -185 -1251 -286 -2005 -336 -244
-17 -830 -11 -1120 10 -670 48 -1343 168 -1930 345 -74 22 -172 51 -217 65
-169 51 -595 209 -736 274 -37 17 -70 31 -72 31 -2 0 -33 13 -67 28 -35 16
-88 40 -118 53 -85 37 -496 243 -585 294 -44 25 -120 68 -170 95 -98 56 -212
124 -290 175 -209 136 -352 232 -425 284 -47 33 -107 76 -135 95 -131 92 -443
344 -650 525 -161 142 -548 523 -704 696 -422 464 -874 1079 -1144 1555 -163
288 -368 684 -436 842 l-20 46 83 204 c129 320 238 559 397 878 324 648 648
1151 1028 1595 194 228 529 545 759 719 81 62 342 236 353 236 5 0 9 -6 9 -14z"/>
</g>
</svg>
