<svg width="16" height="16" viewBox="0 0 16 16" fill="none" xmlns="http://www.w3.org/2000/svg">
<g id="Social icon" clip-path="url(#clip0_1643_2831)">
<path id="Vector" d="M15.8442 8.18429C15.8442 7.64047 15.8001 7.09371 15.706 6.55872H8.16016V9.63937H12.4813C12.302 10.6329 11.7258 11.5119 10.8822 12.0704V14.0693H13.4602C14.9741 12.6759 15.8442 10.6182 15.8442 8.18429Z" fill="#A8B5C2"/>
<path id="Vector_2" d="M8.16072 16.0005C10.3184 16.0005 12.1379 15.2921 13.4637 14.0693L10.8857 12.0704C10.1684 12.5583 9.24248 12.8346 8.16366 12.8346C6.07657 12.8346 4.30696 11.4266 3.67202 9.53352H1.01172V11.5942C2.36979 14.2956 5.13592 16.0005 8.16072 16.0005Z" fill="#A8B5C2"/>
<path id="Vector_3" d="M3.66852 9.53351C3.33341 8.53994 3.33341 7.46406 3.66852 6.47049V4.40987H1.01116C-0.123511 6.67038 -0.123511 9.33362 1.01116 11.5941L3.66852 9.53351Z" fill="#A8B5C2"/>
<path id="Vector_4" d="M8.16072 3.16644C9.30127 3.1488 10.4036 3.57798 11.2296 4.36578L13.5136 2.08174C12.0674 0.72367 10.1479 -0.0229773 8.16072 0.000539111C5.13592 0.000539111 2.36979 1.70548 1.01172 4.40987L3.66908 6.4705C4.30108 4.57449 6.07363 3.16644 8.16072 3.16644Z" fill="#A8B5C2"/>
</g>
<defs>
<clipPath id="clip0_1643_2831">
<rect width="16" height="16" fill="white"/>
</clipPath>
</defs>
</svg>
